<?xml version="1.0" encoding="UTF-8" standalone="no"?><svg xmlns="http://www.w3.org/2000/svg" xmlns:xlink="http://www.w3.org/1999/xlink" contentScriptType="application/ecmascript" contentStyleType="text/css" height="923px" preserveAspectRatio="none" style="width:753px;height:923px;" version="1.1" viewBox="0 0 753 923" width="753px" zoomAndPan="magnify"><defs><filter height="300%" id="f1pa156d0uwdvw" width="300%" x="-1" y="-1"><feGaussianBlur result="blurOut" stdDeviation="2.0"/><feColorMatrix in="blurOut" result="blurOut2" type="matrix" values="0 0 0 0 0 0 0 0 0 0 0 0 0 0 0 0 0 0 .4 0"/><feOffset dx="4.0" dy="4.0" in="blurOut2" result="blurOut3"/><feBlend in="SourceGraphic" in2="blurOut3" mode="normal"/></filter></defs><g><!--class Feedback--><rect fill="#FEFECE" filter="url(#f1pa156d0uwdvw)" height="120.7754" id="Feedback" style="stroke: #A80036; stroke-width: 1.5;" width="359" x="55" y="8"/><ellipse cx="202.25" cy="24" fill="#B4A7E5" rx="11" ry="11" style="stroke: #A80036; stroke-width: 1.0;"/><path d="M198.1777,19.7651 L198.1777,17.6069 L205.5571,17.6069 L205.5571,19.7651 L203.0918,19.7651 L203.0918,27.8418 L205.5571,27.8418 L205.5571,30 L198.1777,30 L198.1777,27.8418 L200.6431,27.8418 L200.6431,19.7651 Z "/><text fill="#000000" font-family="sans-serif" font-size="12" font-style="italic" lengthAdjust="spacingAndGlyphs" textLength="56" x="222.75" y="28.5352">Feedback</text><line style="stroke: #A80036; stroke-width: 1.5;" x1="56" x2="413" y1="40" y2="40"/><text fill="#000000" font-family="sans-serif" font-size="11" font-weight="bold" lengthAdjust="spacingAndGlyphs" textLength="79" x="61" y="54.6348">key functions:</text><line style="stroke: #A80036; stroke-width: 1.0;" x1="56" x2="413" y1="60.9551" y2="60.9551"/><text fill="#000000" font-family="sans-serif" font-size="11" font-weight="bold" lengthAdjust="spacingAndGlyphs" textLength="107" x="61" y="75.5898">computeFeedback()</text><text fill="#000000" font-family="sans-serif" font-size="11" lengthAdjust="spacingAndGlyphs" textLength="249" x="61" y="88.5449">Determine feedback state (via componentBase)</text><line style="stroke: #A80036; stroke-width: 1.0;" x1="56" x2="413" y1="94.8652" y2="94.8652"/><text fill="#000000" font-family="sans-serif" font-size="11" font-weight="bold" lengthAdjust="spacingAndGlyphs" textLength="148" x="61" y="109.5">_onFeedbackSlotChanged()</text><text fill="#000000" font-family="sans-serif" font-size="11" lengthAdjust="spacingAndGlyphs" textLength="347" x="61" y="122.4551">Place Feedback slot elements into the interaction render template</text><!--class DropDown--><rect fill="#FEFECE" filter="url(#f1pa156d0uwdvw)" height="146.6855" id="DropDown" style="stroke: #A80036; stroke-width: 1.5;" width="457" x="6" y="189"/><ellipse cx="199.75" cy="205" fill="#ADD1B2" rx="11" ry="11" style="stroke: #A80036; stroke-width: 1.0;"/><path d="M202.7231,210.6431 Q202.1421,210.9419 201.5029,211.0913 Q200.8638,211.2407 200.1582,211.2407 Q197.6514,211.2407 196.3315,209.5889 Q195.0117,207.937 195.0117,204.8159 Q195.0117,201.6865 196.3315,200.0347 Q197.6514,198.3828 200.1582,198.3828 Q200.8638,198.3828 201.5112,198.5322 Q202.1587,198.6816 202.7231,198.9805 L202.7231,201.7031 Q202.0923,201.1221 201.4988,200.8523 Q200.9053,200.5825 200.2744,200.5825 Q198.9297,200.5825 198.2449,201.6492 Q197.5601,202.7158 197.5601,204.8159 Q197.5601,206.9077 198.2449,207.9744 Q198.9297,209.041 200.2744,209.041 Q200.9053,209.041 201.4988,208.7712 Q202.0923,208.5015 202.7231,207.9204 Z "/><text fill="#000000" font-family="sans-serif" font-size="12" lengthAdjust="spacingAndGlyphs" textLength="61" x="220.25" y="209.5352">DropDown</text><line style="stroke: #A80036; stroke-width: 1.5;" x1="7" x2="462" y1="221" y2="221"/><text fill="#000000" font-family="sans-serif" font-size="11" font-weight="bold" lengthAdjust="spacingAndGlyphs" textLength="79" x="12" y="235.6348">key functions:</text><line style="stroke: #A80036; stroke-width: 1.0;" x1="7" x2="462" y1="241.9551" y2="241.9551"/><text fill="#000000" font-family="sans-serif" font-size="11" font-weight="bold" lengthAdjust="spacingAndGlyphs" textLength="98" x="12" y="256.5898">protected _render</text><text fill="#000000" font-family="sans-serif" font-size="11" font-weight="bold" lengthAdjust="spacingAndGlyphs" textLength="445" x="12" y="269.5449">({ open, feedbackMessage, items, multiple, value }: DropDown): TemplateResult</text><text fill="#000000" font-family="sans-serif" font-size="11" lengthAdjust="spacingAndGlyphs" textLength="292" x="12" y="282.5">Renders the drop down menu using an HTML template.</text><text fill="#000000" font-family="sans-serif" font-size="11" lengthAdjust="spacingAndGlyphs" textLength="280" x="12" y="295.4551">Re-renders whenever any of the parameters change.</text><line style="stroke: #A80036; stroke-width: 1.0;" x1="7" x2="462" y1="301.7754" y2="301.7754"/><text fill="#000000" font-family="sans-serif" font-size="11" font-weight="bold" lengthAdjust="spacingAndGlyphs" textLength="130" x="12" y="316.4102">_onDropDownClicked()</text><text fill="#000000" font-family="sans-serif" font-size="11" lengthAdjust="spacingAndGlyphs" textLength="183" x="12" y="329.3652">Open / close the drop down menu</text><path d="M498,234.5 L498,258.5 L463.094,262.5 L498,266.5 L498,290.4316 A0,0 0 0 0 498,290.4316 L741,290.4316 A0,0 0 0 0 741,290.4316 L741,244.5 L731,234.5 L498,234.5 A0,0 0 0 0 498,234.5 " fill="#FBFB77" filter="url(#f1pa156d0uwdvw)" style="stroke: #A80036; stroke-width: 1.0;"/><path d="M731,234.5 L731,244.5 L741,244.5 L731,234.5 " fill="#FBFB77" style="stroke: #A80036; stroke-width: 1.0;"/><text fill="#000000" font-family="sans-serif" font-size="13" lengthAdjust="spacingAndGlyphs" textLength="99" x="504" y="252.0684">The interaction.</text><text fill="#000000" font-family="sans-serif" font-size="13" lengthAdjust="spacingAndGlyphs" textLength="222" x="504" y="267.3789">Contains an HTML render template.</text><text fill="#000000" font-family="sans-serif" font-size="13" lengthAdjust="spacingAndGlyphs" textLength="207" x="504" y="282.6895">Defines HTML tag &lt;drop-down&gt;</text><!--class MultipleChoice--><rect fill="#FEFECE" filter="url(#f1pa156d0uwdvw)" height="167.6406" id="MultipleChoice" style="stroke: #A80036; stroke-width: 1.5;" width="389" x="40" y="396"/><ellipse cx="166.75" cy="412" fill="#ADD1B2" rx="11" ry="11" style="stroke: #A80036; stroke-width: 1.0;"/><path d="M169.7231,417.6431 Q169.1421,417.9419 168.5029,418.0913 Q167.8638,418.2407 167.1582,418.2407 Q164.6514,418.2407 163.3315,416.5889 Q162.0117,414.937 162.0117,411.8159 Q162.0117,408.6865 163.3315,407.0347 Q164.6514,405.3828 167.1582,405.3828 Q167.8638,405.3828 168.5112,405.5322 Q169.1587,405.6816 169.7231,405.9805 L169.7231,408.7031 Q169.0923,408.1221 168.4988,407.8523 Q167.9053,407.5825 167.2744,407.5825 Q165.9297,407.5825 165.2449,408.6492 Q164.5601,409.7158 164.5601,411.8159 Q164.5601,413.9077 165.2449,414.9744 Q165.9297,416.041 167.2744,416.041 Q167.9053,416.041 168.4988,415.7712 Q169.0923,415.5015 169.7231,414.9204 Z "/><text fill="#000000" font-family="sans-serif" font-size="12" lengthAdjust="spacingAndGlyphs" textLength="83" x="187.25" y="416.5352">MultipleChoice</text><rect fill="#FFFFFF" height="16.1328" style="stroke: #000000; stroke-width: 1.0; stroke-dasharray: 2.0,2.0;" width="42" x="390" y="393"/><text fill="#000000" font-family="sans-serif" font-size="12" font-style="italic" lengthAdjust="spacingAndGlyphs" textLength="40" x="391" y="405.6016">string[]</text><line style="stroke: #A80036; stroke-width: 1.5;" x1="41" x2="428" y1="428" y2="428"/><text fill="#000000" font-family="sans-serif" font-size="11" font-weight="bold" lengthAdjust="spacingAndGlyphs" textLength="79" x="46" y="442.6348">key functions:</text><line style="stroke: #A80036; stroke-width: 1.0;" x1="41" x2="428" y1="448.9551" y2="448.9551"/><text fill="#000000" font-family="sans-serif" font-size="11" font-weight="bold" lengthAdjust="spacingAndGlyphs" textLength="143" x="46" y="463.5898">protected _onItemClicked</text><text fill="#000000" font-family="sans-serif" font-size="11" font-weight="bold" lengthAdjust="spacingAndGlyphs" textLength="349" x="46" y="476.5449">(event: Event, selected: string, multiple: boolean = false): void</text><text fill="#000000" font-family="sans-serif" font-size="11" lengthAdjust="spacingAndGlyphs" textLength="333" x="46" y="489.5">Click handler for option items. Sets the value of the interaction</text><line style="stroke: #A80036; stroke-width: 1.0;" x1="41" x2="428" y1="495.8203" y2="495.8203"/><text fill="#000000" font-family="sans-serif" font-size="11" font-weight="bold" lengthAdjust="spacingAndGlyphs" textLength="364" x="46" y="510.4551">public match(el: ResponseValidation, response: string[]): boolean</text><text fill="#000000" font-family="sans-serif" font-size="11" lengthAdjust="spacingAndGlyphs" textLength="377" x="46" y="523.4102">Determine if the value of this interaction matches any of the responses</text><line style="stroke: #A80036; stroke-width: 1.0;" x1="41" x2="428" y1="529.7305" y2="529.7305"/><text fill="#000000" font-family="sans-serif" font-size="11" font-weight="bold" lengthAdjust="spacingAndGlyphs" textLength="253" x="46" y="544.3652">protected _onSlotChanged(event: Event): void</text><text fill="#000000" font-family="sans-serif" font-size="11" lengthAdjust="spacingAndGlyphs" textLength="297" x="46" y="557.3203">Place item elements into the interaction render template</text><path d="M464.5,459.5 L464.5,476 L429.223,480 L464.5,484 L464.5,500.1211 A0,0 0 0 0 464.5,500.1211 L636.5,500.1211 A0,0 0 0 0 636.5,500.1211 L636.5,469.5 L626.5,459.5 L464.5,459.5 A0,0 0 0 0 464.5,459.5 " fill="#FBFB77" filter="url(#f1pa156d0uwdvw)" style="stroke: #A80036; stroke-width: 1.0;"/><path d="M626.5,459.5 L626.5,469.5 L636.5,469.5 L626.5,459.5 " fill="#FBFB77" style="stroke: #A80036; stroke-width: 1.0;"/><text fill="#000000" font-family="sans-serif" font-size="13" lengthAdjust="spacingAndGlyphs" textLength="112" x="470.5" y="477.0684">Super class for all</text><text fill="#000000" font-family="sans-serif" font-size="13" lengthAdjust="spacingAndGlyphs" textLength="151" x="470.5" y="492.3789">interactions of this type</text><!--class ComponentBase--><rect fill="#FEFECE" filter="url(#f1pa156d0uwdvw)" height="141.7305" id="ComponentBase" style="stroke: #A80036; stroke-width: 1.5;" width="232" x="118.5" y="624"/><ellipse cx="177.75" cy="640" fill="#ADD1B2" rx="11" ry="11" style="stroke: #A80036; stroke-width: 1.0;"/><path d="M180.7231,645.6431 Q180.1421,645.9419 179.5029,646.0913 Q178.8638,646.2407 178.1582,646.2407 Q175.6514,646.2407 174.3315,644.5889 Q173.0117,642.937 173.0117,639.8159 Q173.0117,636.6865 174.3315,635.0347 Q175.6514,633.3828 178.1582,633.3828 Q178.8638,633.3828 179.5112,633.5322 Q180.1587,633.6816 180.7231,633.9805 L180.7231,636.7031 Q180.0923,636.1221 179.4988,635.8523 Q178.9053,635.5825 178.2744,635.5825 Q176.9297,635.5825 176.2449,636.6492 Q175.5601,637.7158 175.5601,639.8159 Q175.5601,641.9077 176.2449,642.9744 Q176.9297,644.041 178.2744,644.041 Q178.9053,644.041 179.4988,643.7712 Q180.0923,643.5015 180.7231,642.9204 Z "/><text fill="#000000" font-family="sans-serif" font-size="12" lengthAdjust="spacingAndGlyphs" textLength="93" x="198.25" y="644.5352">ComponentBase</text><rect fill="#FFFFFF" height="16.1328" style="stroke: #000000; stroke-width: 1.0; stroke-dasharray: 2.0,2.0;" width="10" x="343.5" y="621"/><text fill="#000000" font-family="sans-serif" font-size="12" font-style="italic" lengthAdjust="spacingAndGlyphs" textLength="8" x="344.5" y="633.6016">T</text><line style="stroke: #A80036; stroke-width: 1.5;" x1="119.5" x2="349.5" y1="656" y2="656"/><text fill="#000000" font-family="sans-serif" font-size="11" font-weight="bold" lengthAdjust="spacingAndGlyphs" textLength="79" x="124.5" y="670.6348">key functions:</text><line style="stroke: #A80036; stroke-width: 1.0;" x1="119.5" x2="349.5" y1="676.9551" y2="676.9551"/><text fill="#000000" font-family="sans-serif" font-size="11" font-weight="bold" lengthAdjust="spacingAndGlyphs" textLength="159" x="124.5" y="691.5898">public showFeedback(): void</text><text fill="#000000" font-family="sans-serif" font-size="11" lengthAdjust="spacingAndGlyphs" textLength="217" x="124.5" y="704.5449">Sets the feedback state of the interaction</text><line style="stroke: #A80036; stroke-width: 1.0;" x1="119.5" x2="349.5" y1="710.8652" y2="710.8652"/><text fill="#000000" font-family="sans-serif" font-size="11" font-weight="bold" lengthAdjust="spacingAndGlyphs" textLength="220" x="124.5" y="725.5">public getFeedback(): FeedbackMessage</text><line style="stroke: #A80036; stroke-width: 1.0;" x1="119.5" x2="349.5" y1="731.8203" y2="731.8203"/><text fill="#000000" font-family="sans-serif" font-size="11" font-weight="bold" lengthAdjust="spacingAndGlyphs" textLength="110" x="124.5" y="746.4551">public getValue(): T</text><text fill="#000000" font-family="sans-serif" font-size="11" lengthAdjust="spacingAndGlyphs" textLength="188" x="124.5" y="759.4102">Returns the value of the interaction</text><path d="M386,674.5 L386,691 L350.516,695 L386,699 L386,715.1211 A0,0 0 0 0 386,715.1211 L523,715.1211 A0,0 0 0 0 523,715.1211 L523,684.5 L513,674.5 L386,674.5 A0,0 0 0 0 386,674.5 " fill="#FBFB77" filter="url(#f1pa156d0uwdvw)" style="stroke: #A80036; stroke-width: 1.0;"/><path d="M513,674.5 L513,684.5 L523,684.5 L513,674.5 " fill="#FBFB77" style="stroke: #A80036; stroke-width: 1.0;"/><text fill="#000000" font-family="sans-serif" font-size="13" lengthAdjust="spacingAndGlyphs" textLength="112" x="392" y="692.0684">Super class for all</text><text fill="#000000" font-family="sans-serif" font-size="13" lengthAdjust="spacingAndGlyphs" textLength="75" x="392" y="707.3789">interactions</text><!--class LitElement--><rect fill="#FEFECE" filter="url(#f1pa156d0uwdvw)" height="86.8652" id="LitElement" style="stroke: #A80036; stroke-width: 1.5;" width="345" x="62" y="826"/><ellipse cx="200.75" cy="842" fill="#ADD1B2" rx="11" ry="11" style="stroke: #A80036; stroke-width: 1.0;"/><path d="M203.7231,847.6431 Q203.1421,847.9419 202.5029,848.0913 Q201.8638,848.2407 201.1582,848.2407 Q198.6514,848.2407 197.3315,846.5889 Q196.0117,844.937 196.0117,841.8159 Q196.0117,838.6865 197.3315,837.0347 Q198.6514,835.3828 201.1582,835.3828 Q201.8638,835.3828 202.5112,835.5322 Q203.1587,835.6816 203.7231,835.9805 L203.7231,838.7031 Q203.0923,838.1221 202.4988,837.8523 Q201.9053,837.5825 201.2744,837.5825 Q199.9297,837.5825 199.2449,838.6492 Q198.5601,839.7158 198.5601,841.8159 Q198.5601,843.9077 199.2449,844.9744 Q199.9297,846.041 201.2744,846.041 Q201.9053,846.041 202.4988,845.7712 Q203.0923,845.5015 203.7231,844.9204 Z "/><text fill="#000000" font-family="sans-serif" font-size="12" lengthAdjust="spacingAndGlyphs" textLength="59" x="221.25" y="846.5352">LitElement</text><line style="stroke: #A80036; stroke-width: 1.5;" x1="63" x2="406" y1="858" y2="858"/><text fill="#000000" font-family="sans-serif" font-size="11" font-weight="bold" lengthAdjust="spacingAndGlyphs" textLength="79" x="68" y="872.6348">key functions:</text><line style="stroke: #A80036; stroke-width: 1.0;" x1="63" x2="406" y1="878.9551" y2="878.9551"/><text fill="#000000" font-family="sans-serif" font-size="11" font-weight="bold" lengthAdjust="spacingAndGlyphs" textLength="282" x="68" y="893.5898">protected _render(_props: object): TemplateResult;</text><text fill="#000000" font-family="sans-serif" font-size="11" lengthAdjust="spacingAndGlyphs" textLength="333" x="68" y="906.5449">Render using an HTML template. Overridden by the interaction</text><path d="M442,849 L442,865.5 L407.162,869.5 L442,873.5 L442,889.6211 A0,0 0 0 0 442,889.6211 L719,889.6211 A0,0 0 0 0 719,889.6211 L719,859 L709,849 L442,849 A0,0 0 0 0 442,849 " fill="#FBFB77" filter="url(#f1pa156d0uwdvw)" style="stroke: #A80036; stroke-width: 1.0;"/><path d="M709,849 L709,859 L719,859 L709,849 " fill="#FBFB77" style="stroke: #A80036; stroke-width: 1.0;"/><text fill="#000000" font-family="sans-serif" font-size="13" lengthAdjust="spacingAndGlyphs" textLength="201" x="448" y="866.5684">A simple base class for creating</text><text fill="#000000" font-family="sans-serif" font-size="13" lengthAdjust="spacingAndGlyphs" textLength="256" x="448" y="881.8789">custom elements rendered with lit-html.</text><!--link Feedback to DropDown--><path d="M234.5,129.198 C234.5,141.698 234.5,155.161 234.5,168.546 " fill="none" id="Feedback-DropDown" style="stroke: #A80036; stroke-width: 1.0;"/><polygon fill="none" points="241.5,168.663,234.5,188.663,227.5,168.663,241.5,168.663" style="stroke: #A80036; stroke-width: 1.0;"/><!--link DropDown to MultipleChoice--><path d="M234.5,336.158 C234.5,353.693 234.5,372.621 234.5,390.782 " fill="none" id="DropDown-MultipleChoice" style="stroke: #A80036; stroke-width: 1.0;"/><polygon fill="#A80036" points="234.5,395.883,238.5,386.883,234.5,390.883,230.5,386.883,234.5,395.883" style="stroke: #A80036; stroke-width: 1.0;"/><!--link MultipleChoice to ComponentBase--><path d="M234.5,564.266 C234.5,582.137 234.5,600.925 234.5,618.482 " fill="none" id="MultipleChoice-ComponentBase" style="stroke: #A80036; stroke-width: 1.0;"/><polygon fill="#A80036" points="234.5,623.889,238.5,614.889,234.5,618.889,230.5,614.889,234.5,623.889" style="stroke: #A80036; stroke-width: 1.0;"/><!--link ComponentBase to LitElement--><path d="M234.5,766.162 C234.5,784.421 234.5,803.677 234.5,820.4993 " fill="none" id="ComponentBase-LitElement" style="stroke: #A80036; stroke-width: 1.0;"/><polygon fill="#A80036" points="234.5,825.6379,238.5,816.6379,234.5,820.6379,230.5,816.6379,234.5,825.6379" style="stroke: #A80036; stroke-width: 1.0;"/><!--
@startuml drop-down-class-diagram

interface Feedback {
    <b>key functions:</b>
    - -
    <b>computeFeedback()</b>
    Determine feedback state (via componentBase)
    - -
    <b>_onFeedbackSlotChanged()</b>
    Place Feedback slot elements into the interaction render template
}

Feedback - -|> DropDown

note right of DropDown: The interaction.\nContains an HTML render template.\nDefines HTML tag <drop-down>  
class DropDown {
    <b>key functions:</b>
    - -
    <b>protected _render\n<b>({ open, feedbackMessage, items, multiple, value }: DropDown): TemplateResult</b>
    Renders the drop down menu using an HTML template.
    Re-renders whenever any of the parameters change.
    - -
    <b>_onDropDownClicked()</b> 
    Open / close the drop down menu
}

DropDown - -> MultipleChoice
note right of MultipleChoice: Super class for all \ninteractions of this type 
class MultipleChoice<string[]>  {
    <b>key functions:</b>
    - -
    <b>protected _onItemClicked\n<b>(event: Event, selected: string, multiple: boolean = false): void</b>\nClick handler for option items. Sets the value of the interaction
    - -
    <b>public match(el: ResponseValidation, response: string[]): boolean</b>
    Determine if the value of this interaction matches any of the responses
    - -
    <b>protected _onSlotChanged(event: Event): void</b>
    Place item elements into the interaction render template
}

MultipleChoice - -> ComponentBase
note right of ComponentBase: Super class for all \ninteractions
class ComponentBase<T> {
    <b>key functions:</b>
    - -
    <b>public showFeedback(): void</b>
    Sets the feedback state of the interaction
    - -
    <b>public getFeedback(): FeedbackMessage</b>
    - -
    <b>public getValue(): T</b>
    Returns the value of the interaction
}

ComponentBase - -> LitElement
note right of LitElement: A simple base class for creating\ncustom elements rendered with lit-html.
class LitElement {
    <b>key functions:</b>
    - -
    <b>protected _render(_props: object): TemplateResult;</b>
    Render using an HTML template. Overridden by the interaction
}

@enduml

PlantUML version 1.2018.03(Thu Apr 05 12:59:15 EDT 2018)
(GPL source distribution)
Java Runtime: Java(TM) SE Runtime Environment
JVM: Java HotSpot(TM) 64-Bit Server VM
Java Version: 1.8.0_40-b26
Operating System: Mac OS X
OS Version: 10.13.6
Default Encoding: UTF-8
Language: en
Country: CA
--></g></svg>