<?xml version="1.0" encoding="UTF-8" standalone="no"?><svg xmlns="http://www.w3.org/2000/svg" xmlns:xlink="http://www.w3.org/1999/xlink" contentScriptType="application/ecmascript" contentStyleType="text/css" height="897px" preserveAspectRatio="none" style="width:753px;height:897px;" version="1.1" viewBox="0 0 753 897" width="753px" zoomAndPan="magnify"><defs><filter height="300%" id="f443xd2spns6w" width="300%" x="-1" y="-1"><feGaussianBlur result="blurOut" stdDeviation="2.0"/><feColorMatrix in="blurOut" result="blurOut2" type="matrix" values="0 0 0 0 0 0 0 0 0 0 0 0 0 0 0 0 0 0 .4 0"/><feOffset dx="4.0" dy="4.0" in="blurOut2" result="blurOut3"/><feBlend in="SourceGraphic" in2="blurOut3" mode="normal"/></filter></defs><g><!--class Feedback--><rect fill="#FEFECE" filter="url(#f443xd2spns6w)" height="120.7754" id="Feedback" style="stroke: #A80036; stroke-width: 1.5;" width="359" x="55" y="8"/><ellipse cx="202.25" cy="24" fill="#B4A7E5" rx="11" ry="11" style="stroke: #A80036; stroke-width: 1.0;"/><path d="M198.1777,19.7651 L198.1777,17.6069 L205.5571,17.6069 L205.5571,19.7651 L203.0918,19.7651 L203.0918,27.8418 L205.5571,27.8418 L205.5571,30 L198.1777,30 L198.1777,27.8418 L200.6431,27.8418 L200.6431,19.7651 Z "/><text fill="#000000" font-family="sans-serif" font-size="12" font-style="italic" lengthAdjust="spacingAndGlyphs" textLength="56" x="222.75" y="28.5352">Feedback</text><line style="stroke: #A80036; stroke-width: 1.5;" x1="56" x2="413" y1="40" y2="40"/><text fill="#000000" font-family="sans-serif" font-size="11" font-weight="bold" lengthAdjust="spacingAndGlyphs" textLength="79" x="61" y="54.6348">key functions:</text><line style="stroke: #A80036; stroke-width: 1.0;" x1="56" x2="413" y1="60.9551" y2="60.9551"/><text fill="#000000" font-family="sans-serif" font-size="11" font-weight="bold" lengthAdjust="spacingAndGlyphs" textLength="107" x="61" y="75.5898">computeFeedback()</text><text fill="#000000" font-family="sans-serif" font-size="11" lengthAdjust="spacingAndGlyphs" textLength="249" x="61" y="88.5449">Determine feedback state (via componentBase)</text><line style="stroke: #A80036; stroke-width: 1.0;" x1="56" x2="413" y1="94.8652" y2="94.8652"/><text fill="#000000" font-family="sans-serif" font-size="11" font-weight="bold" lengthAdjust="spacingAndGlyphs" textLength="148" x="61" y="109.5">_onFeedbackSlotChanged()</text><text fill="#000000" font-family="sans-serif" font-size="11" lengthAdjust="spacingAndGlyphs" textLength="347" x="61" y="122.4551">Place Feedback slot elements into the interaction render template</text><!--class MultipleChoiceQuestion--><rect fill="#FEFECE" filter="url(#f443xd2spns6w)" height="120.7754" id="MultipleChoiceQuestion" style="stroke: #A80036; stroke-width: 1.5;" width="457" x="6" y="189"/><ellipse cx="163.75" cy="205" fill="#ADD1B2" rx="11" ry="11" style="stroke: #A80036; stroke-width: 1.0;"/><path d="M166.7231,210.6431 Q166.1421,210.9419 165.5029,211.0913 Q164.8638,211.2407 164.1582,211.2407 Q161.6514,211.2407 160.3315,209.5889 Q159.0117,207.937 159.0117,204.8159 Q159.0117,201.6865 160.3315,200.0347 Q161.6514,198.3828 164.1582,198.3828 Q164.8638,198.3828 165.5112,198.5322 Q166.1587,198.6816 166.7231,198.9805 L166.7231,201.7031 Q166.0923,201.1221 165.4988,200.8523 Q164.9053,200.5825 164.2744,200.5825 Q162.9297,200.5825 162.2449,201.6492 Q161.5601,202.7158 161.5601,204.8159 Q161.5601,206.9077 162.2449,207.9744 Q162.9297,209.041 164.2744,209.041 Q164.9053,209.041 165.4988,208.7712 Q166.0923,208.5015 166.7231,207.9204 Z "/><text fill="#000000" font-family="sans-serif" font-size="12" lengthAdjust="spacingAndGlyphs" textLength="133" x="184.25" y="209.5352">MultipleChoiceQuestion</text><line style="stroke: #A80036; stroke-width: 1.5;" x1="7" x2="462" y1="221" y2="221"/><text fill="#000000" font-family="sans-serif" font-size="11" font-weight="bold" lengthAdjust="spacingAndGlyphs" textLength="79" x="12" y="235.6348">key functions:</text><line style="stroke: #A80036; stroke-width: 1.0;" x1="7" x2="462" y1="241.9551" y2="241.9551"/><text fill="#000000" font-family="sans-serif" font-size="11" font-weight="bold" lengthAdjust="spacingAndGlyphs" textLength="98" x="12" y="256.5898">protected _render</text><text fill="#000000" font-family="sans-serif" font-size="11" font-weight="bold" lengthAdjust="spacingAndGlyphs" textLength="445" x="12" y="269.5449">({ open, feedbackMessage, items, multiple, value }: DropDown): TemplateResult</text><text fill="#000000" font-family="sans-serif" font-size="11" lengthAdjust="spacingAndGlyphs" textLength="335" x="12" y="282.5">Renders the Multiple Choice Question using an HTML template.</text><text fill="#000000" font-family="sans-serif" font-size="11" lengthAdjust="spacingAndGlyphs" textLength="280" x="12" y="295.4551">Re-renders whenever any of the parameters change.</text><line style="stroke: #A80036; stroke-width: 1.0;" x1="7" x2="462" y1="301.7754" y2="301.7754"/><path d="M498,221.5 L498,245.5 L463.094,249.5 L498,253.5 L498,277.4316 A0,0 0 0 0 498,277.4316 L741,277.4316 A0,0 0 0 0 741,277.4316 L741,231.5 L731,221.5 L498,221.5 A0,0 0 0 0 498,221.5 " fill="#FBFB77" filter="url(#f443xd2spns6w)" style="stroke: #A80036; stroke-width: 1.0;"/><path d="M731,221.5 L731,231.5 L741,231.5 L731,221.5 " fill="#FBFB77" style="stroke: #A80036; stroke-width: 1.0;"/><text fill="#000000" font-family="sans-serif" font-size="13" lengthAdjust="spacingAndGlyphs" textLength="99" x="504" y="239.0684">The interaction.</text><text fill="#000000" font-family="sans-serif" font-size="13" lengthAdjust="spacingAndGlyphs" textLength="222" x="504" y="254.3789">Contains an HTML render template.</text><text fill="#000000" font-family="sans-serif" font-size="13" lengthAdjust="spacingAndGlyphs" textLength="207" x="504" y="269.6895">Defines HTML tag &lt;drop-down&gt;</text><!--class MultipleChoice--><rect fill="#FEFECE" filter="url(#f443xd2spns6w)" height="167.6406" id="MultipleChoice" style="stroke: #A80036; stroke-width: 1.5;" width="389" x="40" y="370"/><ellipse cx="166.75" cy="386" fill="#ADD1B2" rx="11" ry="11" style="stroke: #A80036; stroke-width: 1.0;"/><path d="M169.7231,391.6431 Q169.1421,391.9419 168.5029,392.0913 Q167.8638,392.2407 167.1582,392.2407 Q164.6514,392.2407 163.3315,390.5889 Q162.0117,388.937 162.0117,385.8159 Q162.0117,382.6865 163.3315,381.0347 Q164.6514,379.3828 167.1582,379.3828 Q167.8638,379.3828 168.5112,379.5322 Q169.1587,379.6816 169.7231,379.9805 L169.7231,382.7031 Q169.0923,382.1221 168.4988,381.8523 Q167.9053,381.5825 167.2744,381.5825 Q165.9297,381.5825 165.2449,382.6492 Q164.5601,383.7158 164.5601,385.8159 Q164.5601,387.9077 165.2449,388.9744 Q165.9297,390.041 167.2744,390.041 Q167.9053,390.041 168.4988,389.7712 Q169.0923,389.5015 169.7231,388.9204 Z "/><text fill="#000000" font-family="sans-serif" font-size="12" lengthAdjust="spacingAndGlyphs" textLength="83" x="187.25" y="390.5352">MultipleChoice</text><rect fill="#FFFFFF" height="16.1328" style="stroke: #000000; stroke-width: 1.0; stroke-dasharray: 2.0,2.0;" width="42" x="390" y="367"/><text fill="#000000" font-family="sans-serif" font-size="12" font-style="italic" lengthAdjust="spacingAndGlyphs" textLength="40" x="391" y="379.6016">string[]</text><line style="stroke: #A80036; stroke-width: 1.5;" x1="41" x2="428" y1="402" y2="402"/><text fill="#000000" font-family="sans-serif" font-size="11" font-weight="bold" lengthAdjust="spacingAndGlyphs" textLength="79" x="46" y="416.6348">key functions:</text><line style="stroke: #A80036; stroke-width: 1.0;" x1="41" x2="428" y1="422.9551" y2="422.9551"/><text fill="#000000" font-family="sans-serif" font-size="11" font-weight="bold" lengthAdjust="spacingAndGlyphs" textLength="143" x="46" y="437.5898">protected _onItemClicked</text><text fill="#000000" font-family="sans-serif" font-size="11" font-weight="bold" lengthAdjust="spacingAndGlyphs" textLength="349" x="46" y="450.5449">(event: Event, selected: string, multiple: boolean = false): void</text><text fill="#000000" font-family="sans-serif" font-size="11" lengthAdjust="spacingAndGlyphs" textLength="333" x="46" y="463.5">Click handler for option items. Sets the value of the interaction</text><line style="stroke: #A80036; stroke-width: 1.0;" x1="41" x2="428" y1="469.8203" y2="469.8203"/><text fill="#000000" font-family="sans-serif" font-size="11" font-weight="bold" lengthAdjust="spacingAndGlyphs" textLength="364" x="46" y="484.4551">public match(el: ResponseValidation, response: string[]): boolean</text><text fill="#000000" font-family="sans-serif" font-size="11" lengthAdjust="spacingAndGlyphs" textLength="377" x="46" y="497.4102">Determine if the value of this interaction matches any of the responses</text><line style="stroke: #A80036; stroke-width: 1.0;" x1="41" x2="428" y1="503.7305" y2="503.7305"/><text fill="#000000" font-family="sans-serif" font-size="11" font-weight="bold" lengthAdjust="spacingAndGlyphs" textLength="253" x="46" y="518.3652">protected _onSlotChanged(event: Event): void</text><text fill="#000000" font-family="sans-serif" font-size="11" lengthAdjust="spacingAndGlyphs" textLength="297" x="46" y="531.3203">Place item elements into the interaction render template</text><path d="M464.5,433.5 L464.5,450 L429.223,454 L464.5,458 L464.5,474.1211 A0,0 0 0 0 464.5,474.1211 L636.5,474.1211 A0,0 0 0 0 636.5,474.1211 L636.5,443.5 L626.5,433.5 L464.5,433.5 A0,0 0 0 0 464.5,433.5 " fill="#FBFB77" filter="url(#f443xd2spns6w)" style="stroke: #A80036; stroke-width: 1.0;"/><path d="M626.5,433.5 L626.5,443.5 L636.5,443.5 L626.5,433.5 " fill="#FBFB77" style="stroke: #A80036; stroke-width: 1.0;"/><text fill="#000000" font-family="sans-serif" font-size="13" lengthAdjust="spacingAndGlyphs" textLength="112" x="470.5" y="451.0684">Super class for all</text><text fill="#000000" font-family="sans-serif" font-size="13" lengthAdjust="spacingAndGlyphs" textLength="151" x="470.5" y="466.3789">interactions of this type</text><!--class ComponentBase--><rect fill="#FEFECE" filter="url(#f443xd2spns6w)" height="141.7305" id="ComponentBase" style="stroke: #A80036; stroke-width: 1.5;" width="232" x="118.5" y="598"/><ellipse cx="177.75" cy="614" fill="#ADD1B2" rx="11" ry="11" style="stroke: #A80036; stroke-width: 1.0;"/><path d="M180.7231,619.6431 Q180.1421,619.9419 179.5029,620.0913 Q178.8638,620.2407 178.1582,620.2407 Q175.6514,620.2407 174.3315,618.5889 Q173.0117,616.937 173.0117,613.8159 Q173.0117,610.6865 174.3315,609.0347 Q175.6514,607.3828 178.1582,607.3828 Q178.8638,607.3828 179.5112,607.5322 Q180.1587,607.6816 180.7231,607.9805 L180.7231,610.7031 Q180.0923,610.1221 179.4988,609.8523 Q178.9053,609.5825 178.2744,609.5825 Q176.9297,609.5825 176.2449,610.6492 Q175.5601,611.7158 175.5601,613.8159 Q175.5601,615.9077 176.2449,616.9744 Q176.9297,618.041 178.2744,618.041 Q178.9053,618.041 179.4988,617.7712 Q180.0923,617.5015 180.7231,616.9204 Z "/><text fill="#000000" font-family="sans-serif" font-size="12" lengthAdjust="spacingAndGlyphs" textLength="93" x="198.25" y="618.5352">ComponentBase</text><rect fill="#FFFFFF" height="16.1328" style="stroke: #000000; stroke-width: 1.0; stroke-dasharray: 2.0,2.0;" width="10" x="343.5" y="595"/><text fill="#000000" font-family="sans-serif" font-size="12" font-style="italic" lengthAdjust="spacingAndGlyphs" textLength="8" x="344.5" y="607.6016">T</text><line style="stroke: #A80036; stroke-width: 1.5;" x1="119.5" x2="349.5" y1="630" y2="630"/><text fill="#000000" font-family="sans-serif" font-size="11" font-weight="bold" lengthAdjust="spacingAndGlyphs" textLength="79" x="124.5" y="644.6348">key functions:</text><line style="stroke: #A80036; stroke-width: 1.0;" x1="119.5" x2="349.5" y1="650.9551" y2="650.9551"/><text fill="#000000" font-family="sans-serif" font-size="11" font-weight="bold" lengthAdjust="spacingAndGlyphs" textLength="159" x="124.5" y="665.5898">public showFeedback(): void</text><text fill="#000000" font-family="sans-serif" font-size="11" lengthAdjust="spacingAndGlyphs" textLength="217" x="124.5" y="678.5449">Sets the feedback state of the interaction</text><line style="stroke: #A80036; stroke-width: 1.0;" x1="119.5" x2="349.5" y1="684.8652" y2="684.8652"/><text fill="#000000" font-family="sans-serif" font-size="11" font-weight="bold" lengthAdjust="spacingAndGlyphs" textLength="220" x="124.5" y="699.5">public getFeedback(): FeedbackMessage</text><line style="stroke: #A80036; stroke-width: 1.0;" x1="119.5" x2="349.5" y1="705.8203" y2="705.8203"/><text fill="#000000" font-family="sans-serif" font-size="11" font-weight="bold" lengthAdjust="spacingAndGlyphs" textLength="110" x="124.5" y="720.4551">public getValue(): T</text><text fill="#000000" font-family="sans-serif" font-size="11" lengthAdjust="spacingAndGlyphs" textLength="188" x="124.5" y="733.4102">Returns the value of the interaction</text><path d="M386,648.5 L386,665 L350.516,669 L386,673 L386,689.1211 A0,0 0 0 0 386,689.1211 L523,689.1211 A0,0 0 0 0 523,689.1211 L523,658.5 L513,648.5 L386,648.5 A0,0 0 0 0 386,648.5 " fill="#FBFB77" filter="url(#f443xd2spns6w)" style="stroke: #A80036; stroke-width: 1.0;"/><path d="M513,648.5 L513,658.5 L523,658.5 L513,648.5 " fill="#FBFB77" style="stroke: #A80036; stroke-width: 1.0;"/><text fill="#000000" font-family="sans-serif" font-size="13" lengthAdjust="spacingAndGlyphs" textLength="112" x="392" y="666.0684">Super class for all</text><text fill="#000000" font-family="sans-serif" font-size="13" lengthAdjust="spacingAndGlyphs" textLength="75" x="392" y="681.3789">interactions</text><!--class LitElement--><rect fill="#FEFECE" filter="url(#f443xd2spns6w)" height="86.8652" id="LitElement" style="stroke: #A80036; stroke-width: 1.5;" width="345" x="62" y="800"/><ellipse cx="200.75" cy="816" fill="#ADD1B2" rx="11" ry="11" style="stroke: #A80036; stroke-width: 1.0;"/><path d="M203.7231,821.6431 Q203.1421,821.9419 202.5029,822.0913 Q201.8638,822.2407 201.1582,822.2407 Q198.6514,822.2407 197.3315,820.5889 Q196.0117,818.937 196.0117,815.8159 Q196.0117,812.6865 197.3315,811.0347 Q198.6514,809.3828 201.1582,809.3828 Q201.8638,809.3828 202.5112,809.5322 Q203.1587,809.6816 203.7231,809.9805 L203.7231,812.7031 Q203.0923,812.1221 202.4988,811.8523 Q201.9053,811.5825 201.2744,811.5825 Q199.9297,811.5825 199.2449,812.6492 Q198.5601,813.7158 198.5601,815.8159 Q198.5601,817.9077 199.2449,818.9744 Q199.9297,820.041 201.2744,820.041 Q201.9053,820.041 202.4988,819.7712 Q203.0923,819.5015 203.7231,818.9204 Z "/><text fill="#000000" font-family="sans-serif" font-size="12" lengthAdjust="spacingAndGlyphs" textLength="59" x="221.25" y="820.5352">LitElement</text><line style="stroke: #A80036; stroke-width: 1.5;" x1="63" x2="406" y1="832" y2="832"/><text fill="#000000" font-family="sans-serif" font-size="11" font-weight="bold" lengthAdjust="spacingAndGlyphs" textLength="79" x="68" y="846.6348">key functions:</text><line style="stroke: #A80036; stroke-width: 1.0;" x1="63" x2="406" y1="852.9551" y2="852.9551"/><text fill="#000000" font-family="sans-serif" font-size="11" font-weight="bold" lengthAdjust="spacingAndGlyphs" textLength="282" x="68" y="867.5898">protected _render(_props: object): TemplateResult;</text><text fill="#000000" font-family="sans-serif" font-size="11" lengthAdjust="spacingAndGlyphs" textLength="333" x="68" y="880.5449">Render using an HTML template. Overridden by the interaction</text><path d="M442,823 L442,839.5 L407.162,843.5 L442,847.5 L442,863.6211 A0,0 0 0 0 442,863.6211 L719,863.6211 A0,0 0 0 0 719,863.6211 L719,833 L709,823 L442,823 A0,0 0 0 0 442,823 " fill="#FBFB77" filter="url(#f443xd2spns6w)" style="stroke: #A80036; stroke-width: 1.0;"/><path d="M709,823 L709,833 L719,833 L709,823 " fill="#FBFB77" style="stroke: #A80036; stroke-width: 1.0;"/><text fill="#000000" font-family="sans-serif" font-size="13" lengthAdjust="spacingAndGlyphs" textLength="201" x="448" y="840.5684">A simple base class for creating</text><text fill="#000000" font-family="sans-serif" font-size="13" lengthAdjust="spacingAndGlyphs" textLength="256" x="448" y="855.8789">custom elements rendered with lit-html.</text><!--link Feedback to MultipleChoiceQuestion--><path d="M234.5,129.104 C234.5,141.719 234.5,155.228 234.5,168.458 " fill="none" id="Feedback-MultipleChoiceQuestion" style="stroke: #A80036; stroke-width: 1.0;"/><polygon fill="none" points="241.5,168.851,234.5,188.851,227.5,168.851,241.5,168.851" style="stroke: #A80036; stroke-width: 1.0;"/><!--link MultipleChoiceQuestion to MultipleChoice--><path d="M234.5,310.161 C234.5,327.224 234.5,346.193 234.5,364.588 " fill="none" id="MultipleChoiceQuestion-MultipleChoice" style="stroke: #A80036; stroke-width: 1.0;"/><polygon fill="#A80036" points="234.5,369.759,238.5,360.759,234.5,364.759,230.5,360.759,234.5,369.759" style="stroke: #A80036; stroke-width: 1.0;"/><!--link MultipleChoice to ComponentBase--><path d="M234.5,538.266 C234.5,556.137 234.5,574.925 234.5,592.482 " fill="none" id="MultipleChoice-ComponentBase" style="stroke: #A80036; stroke-width: 1.0;"/><polygon fill="#A80036" points="234.5,597.889,238.5,588.889,234.5,592.889,230.5,588.889,234.5,597.889" style="stroke: #A80036; stroke-width: 1.0;"/><!--link ComponentBase to LitElement--><path d="M234.5,740.162 C234.5,758.421 234.5,777.677 234.5,794.4993 " fill="none" id="ComponentBase-LitElement" style="stroke: #A80036; stroke-width: 1.0;"/><polygon fill="#A80036" points="234.5,799.6379,238.5,790.6379,234.5,794.6379,230.5,790.6379,234.5,799.6379" style="stroke: #A80036; stroke-width: 1.0;"/><!--
@startuml multiple-choice-question-class-diagram

interface Feedback {
    <b>key functions:</b>
    - -
    <b>computeFeedback()</b>
    Determine feedback state (via componentBase)
    - -
    <b>_onFeedbackSlotChanged()</b>
    Place Feedback slot elements into the interaction render template
}

Feedback - -|> MultipleChoiceQuestion

note right of MultipleChoiceQuestion: The interaction.\nContains an HTML render template.\nDefines HTML tag <drop-down>  
class MultipleChoiceQuestion {
    <b>key functions:</b>
    - -
    <b>protected _render\n<b>({ open, feedbackMessage, items, multiple, value }: DropDown): TemplateResult</b>
    Renders the Multiple Choice Question using an HTML template.
    Re-renders whenever any of the parameters change.
    - -
}

MultipleChoiceQuestion - -> MultipleChoice
note right of MultipleChoice: Super class for all \ninteractions of this type 
class MultipleChoice<string[]>  {
    <b>key functions:</b>
    - -
    <b>protected _onItemClicked\n<b>(event: Event, selected: string, multiple: boolean = false): void</b>\nClick handler for option items. Sets the value of the interaction
    - -
    <b>public match(el: ResponseValidation, response: string[]): boolean</b>
    Determine if the value of this interaction matches any of the responses
    - -
    <b>protected _onSlotChanged(event: Event): void</b>
    Place item elements into the interaction render template
}

MultipleChoice - -> ComponentBase
note right of ComponentBase: Super class for all \ninteractions
class ComponentBase<T> {
    <b>key functions:</b>
    - -
    <b>public showFeedback(): void</b>
    Sets the feedback state of the interaction
    - -
    <b>public getFeedback(): FeedbackMessage</b>
    - -
    <b>public getValue(): T</b>
    Returns the value of the interaction
}

ComponentBase - -> LitElement
note right of LitElement: A simple base class for creating\ncustom elements rendered with lit-html.
class LitElement {
    <b>key functions:</b>
    - -
    <b>protected _render(_props: object): TemplateResult;</b>
    Render using an HTML template. Overridden by the interaction
}

@enduml

PlantUML version 1.2018.03(Thu Apr 05 12:59:15 EDT 2018)
(GPL source distribution)
Java Runtime: Java(TM) SE Runtime Environment
JVM: Java HotSpot(TM) 64-Bit Server VM
Java Version: 1.8.0_40-b26
Operating System: Mac OS X
OS Version: 10.13.6
Default Encoding: UTF-8
Language: en
Country: CA
--></g></svg>