<?xml version="1.0" encoding="UTF-8" standalone="no"?><svg xmlns="http://www.w3.org/2000/svg" xmlns:xlink="http://www.w3.org/1999/xlink" contentScriptType="application/ecmascript" contentStyleType="text/css" height="884px" preserveAspectRatio="none" style="width:804px;height:884px;" version="1.1" viewBox="0 0 804 884" width="804px" zoomAndPan="magnify"><defs><filter height="300%" id="f6711dhaprdfr" width="300%" x="-1" y="-1"><feGaussianBlur result="blurOut" stdDeviation="2.0"/><feColorMatrix in="blurOut" result="blurOut2" type="matrix" values="0 0 0 0 0 0 0 0 0 0 0 0 0 0 0 0 0 0 .4 0"/><feOffset dx="4.0" dy="4.0" in="blurOut2" result="blurOut3"/><feBlend in="SourceGraphic" in2="blurOut3" mode="normal"/></filter></defs><g><!--class Feedback--><rect fill="#FEFECE" filter="url(#f6711dhaprdfr)" height="120.7754" id="Feedback" style="stroke: #A80036; stroke-width: 1.5;" width="359" x="80.5" y="8"/><ellipse cx="227.75" cy="24" fill="#B4A7E5" rx="11" ry="11" style="stroke: #A80036; stroke-width: 1.0;"/><path d="M223.6777,19.7651 L223.6777,17.6069 L231.0571,17.6069 L231.0571,19.7651 L228.5918,19.7651 L228.5918,27.8418 L231.0571,27.8418 L231.0571,30 L223.6777,30 L223.6777,27.8418 L226.1431,27.8418 L226.1431,19.7651 Z "/><text fill="#000000" font-family="sans-serif" font-size="12" font-style="italic" lengthAdjust="spacingAndGlyphs" textLength="56" x="248.25" y="28.5352">Feedback</text><line style="stroke: #A80036; stroke-width: 1.5;" x1="81.5" x2="438.5" y1="40" y2="40"/><text fill="#000000" font-family="sans-serif" font-size="11" font-weight="bold" lengthAdjust="spacingAndGlyphs" textLength="79" x="86.5" y="54.6348">key functions:</text><line style="stroke: #A80036; stroke-width: 1.0;" x1="81.5" x2="438.5" y1="60.9551" y2="60.9551"/><text fill="#000000" font-family="sans-serif" font-size="11" font-weight="bold" lengthAdjust="spacingAndGlyphs" textLength="107" x="86.5" y="75.5898">computeFeedback()</text><text fill="#000000" font-family="sans-serif" font-size="11" lengthAdjust="spacingAndGlyphs" textLength="249" x="86.5" y="88.5449">Determine feedback state (via componentBase)</text><line style="stroke: #A80036; stroke-width: 1.0;" x1="81.5" x2="438.5" y1="94.8652" y2="94.8652"/><text fill="#000000" font-family="sans-serif" font-size="11" font-weight="bold" lengthAdjust="spacingAndGlyphs" textLength="148" x="86.5" y="109.5">_onFeedbackSlotChanged()</text><text fill="#000000" font-family="sans-serif" font-size="11" lengthAdjust="spacingAndGlyphs" textLength="347" x="86.5" y="122.4551">Place Feedback slot elements into the interaction render template</text><!--class MultipleChoiceQuestion--><rect fill="#FEFECE" filter="url(#f6711dhaprdfr)" height="107.8203" id="MultipleChoiceQuestion" style="stroke: #A80036; stroke-width: 1.5;" width="508" x="6" y="189"/><ellipse cx="189.25" cy="205" fill="#ADD1B2" rx="11" ry="11" style="stroke: #A80036; stroke-width: 1.0;"/><path d="M192.2231,210.6431 Q191.6421,210.9419 191.0029,211.0913 Q190.3638,211.2407 189.6582,211.2407 Q187.1514,211.2407 185.8315,209.5889 Q184.5117,207.937 184.5117,204.8159 Q184.5117,201.6865 185.8315,200.0347 Q187.1514,198.3828 189.6582,198.3828 Q190.3638,198.3828 191.0112,198.5322 Q191.6587,198.6816 192.2231,198.9805 L192.2231,201.7031 Q191.5923,201.1221 190.9988,200.8523 Q190.4053,200.5825 189.7744,200.5825 Q188.4297,200.5825 187.7449,201.6492 Q187.0601,202.7158 187.0601,204.8159 Q187.0601,206.9077 187.7449,207.9744 Q188.4297,209.041 189.7744,209.041 Q190.4053,209.041 190.9988,208.7712 Q191.5923,208.5015 192.2231,207.9204 Z "/><text fill="#000000" font-family="sans-serif" font-size="12" lengthAdjust="spacingAndGlyphs" textLength="133" x="209.75" y="209.5352">MultipleChoiceQuestion</text><line style="stroke: #A80036; stroke-width: 1.5;" x1="7" x2="513" y1="221" y2="221"/><text fill="#000000" font-family="sans-serif" font-size="11" font-weight="bold" lengthAdjust="spacingAndGlyphs" textLength="79" x="12" y="235.6348">key functions:</text><line style="stroke: #A80036; stroke-width: 1.0;" x1="7" x2="513" y1="241.9551" y2="241.9551"/><text fill="#000000" font-family="sans-serif" font-size="11" font-weight="bold" lengthAdjust="spacingAndGlyphs" textLength="492" x="12" y="256.5898">protected _render({ items, feedbackMessage }: MultipleChoiceQuestion): TemplateResult</text><text fill="#000000" font-family="sans-serif" font-size="11" lengthAdjust="spacingAndGlyphs" textLength="335" x="12" y="269.5449">Renders the Multiple Choice Question using an HTML template.</text><text fill="#000000" font-family="sans-serif" font-size="11" lengthAdjust="spacingAndGlyphs" textLength="280" x="12" y="282.5">Re-renders whenever any of the parameters change.</text><line style="stroke: #A80036; stroke-width: 1.0;" x1="7" x2="513" y1="288.8203" y2="288.8203"/><path d="M549.5,215 L549.5,239 L514.065,243 L549.5,247 L549.5,270.9316 A0,0 0 0 0 549.5,270.9316 L792.5,270.9316 A0,0 0 0 0 792.5,270.9316 L792.5,225 L782.5,215 L549.5,215 A0,0 0 0 0 549.5,215 " fill="#FBFB77" filter="url(#f6711dhaprdfr)" style="stroke: #A80036; stroke-width: 1.0;"/><path d="M782.5,215 L782.5,225 L792.5,225 L782.5,215 " fill="#FBFB77" style="stroke: #A80036; stroke-width: 1.0;"/><text fill="#000000" font-family="sans-serif" font-size="13" lengthAdjust="spacingAndGlyphs" textLength="99" x="555.5" y="232.5684">The interaction.</text><text fill="#000000" font-family="sans-serif" font-size="13" lengthAdjust="spacingAndGlyphs" textLength="222" x="555.5" y="247.8789">Contains an HTML render template.</text><text fill="#000000" font-family="sans-serif" font-size="13" lengthAdjust="spacingAndGlyphs" textLength="207" x="555.5" y="263.1895">Defines HTML tag &lt;drop-down&gt;</text><!--class MultipleChoice--><rect fill="#FEFECE" filter="url(#f6711dhaprdfr)" height="167.6406" id="MultipleChoice" style="stroke: #A80036; stroke-width: 1.5;" width="389" x="65.5" y="357"/><ellipse cx="192.25" cy="373" fill="#ADD1B2" rx="11" ry="11" style="stroke: #A80036; stroke-width: 1.0;"/><path d="M195.2231,378.6431 Q194.6421,378.9419 194.0029,379.0913 Q193.3638,379.2407 192.6582,379.2407 Q190.1514,379.2407 188.8315,377.5889 Q187.5117,375.937 187.5117,372.8159 Q187.5117,369.6865 188.8315,368.0347 Q190.1514,366.3828 192.6582,366.3828 Q193.3638,366.3828 194.0112,366.5322 Q194.6587,366.6816 195.2231,366.9805 L195.2231,369.7031 Q194.5923,369.1221 193.9988,368.8523 Q193.4053,368.5825 192.7744,368.5825 Q191.4297,368.5825 190.7449,369.6492 Q190.0601,370.7158 190.0601,372.8159 Q190.0601,374.9077 190.7449,375.9744 Q191.4297,377.041 192.7744,377.041 Q193.4053,377.041 193.9988,376.7712 Q194.5923,376.5015 195.2231,375.9204 Z "/><text fill="#000000" font-family="sans-serif" font-size="12" lengthAdjust="spacingAndGlyphs" textLength="83" x="212.75" y="377.5352">MultipleChoice</text><rect fill="#FFFFFF" height="16.1328" style="stroke: #000000; stroke-width: 1.0; stroke-dasharray: 2.0,2.0;" width="42" x="415.5" y="354"/><text fill="#000000" font-family="sans-serif" font-size="12" font-style="italic" lengthAdjust="spacingAndGlyphs" textLength="40" x="416.5" y="366.6016">string[]</text><line style="stroke: #A80036; stroke-width: 1.5;" x1="66.5" x2="453.5" y1="389" y2="389"/><text fill="#000000" font-family="sans-serif" font-size="11" font-weight="bold" lengthAdjust="spacingAndGlyphs" textLength="79" x="71.5" y="403.6348">key functions:</text><line style="stroke: #A80036; stroke-width: 1.0;" x1="66.5" x2="453.5" y1="409.9551" y2="409.9551"/><text fill="#000000" font-family="sans-serif" font-size="11" font-weight="bold" lengthAdjust="spacingAndGlyphs" textLength="143" x="71.5" y="424.5898">protected _onItemClicked</text><text fill="#000000" font-family="sans-serif" font-size="11" font-weight="bold" lengthAdjust="spacingAndGlyphs" textLength="349" x="71.5" y="437.5449">(event: Event, selected: string, multiple: boolean = false): void</text><text fill="#000000" font-family="sans-serif" font-size="11" lengthAdjust="spacingAndGlyphs" textLength="333" x="71.5" y="450.5">Click handler for option items. Sets the value of the interaction</text><line style="stroke: #A80036; stroke-width: 1.0;" x1="66.5" x2="453.5" y1="456.8203" y2="456.8203"/><text fill="#000000" font-family="sans-serif" font-size="11" font-weight="bold" lengthAdjust="spacingAndGlyphs" textLength="364" x="71.5" y="471.4551">public match(el: ResponseValidation, response: string[]): boolean</text><text fill="#000000" font-family="sans-serif" font-size="11" lengthAdjust="spacingAndGlyphs" textLength="377" x="71.5" y="484.4102">Determine if the value of this interaction matches any of the responses</text><line style="stroke: #A80036; stroke-width: 1.0;" x1="66.5" x2="453.5" y1="490.7305" y2="490.7305"/><text fill="#000000" font-family="sans-serif" font-size="11" font-weight="bold" lengthAdjust="spacingAndGlyphs" textLength="253" x="71.5" y="505.3652">protected _onSlotChanged(event: Event): void</text><text fill="#000000" font-family="sans-serif" font-size="11" lengthAdjust="spacingAndGlyphs" textLength="297" x="71.5" y="518.3203">Place item elements into the interaction render template</text><path d="M490,420.5 L490,437 L454.723,441 L490,445 L490,461.1211 A0,0 0 0 0 490,461.1211 L662,461.1211 A0,0 0 0 0 662,461.1211 L662,430.5 L652,420.5 L490,420.5 A0,0 0 0 0 490,420.5 " fill="#FBFB77" filter="url(#f6711dhaprdfr)" style="stroke: #A80036; stroke-width: 1.0;"/><path d="M652,420.5 L652,430.5 L662,430.5 L652,420.5 " fill="#FBFB77" style="stroke: #A80036; stroke-width: 1.0;"/><text fill="#000000" font-family="sans-serif" font-size="13" lengthAdjust="spacingAndGlyphs" textLength="112" x="496" y="438.0684">Super class for all</text><text fill="#000000" font-family="sans-serif" font-size="13" lengthAdjust="spacingAndGlyphs" textLength="151" x="496" y="453.3789">interactions of this type</text><!--class ComponentBase--><rect fill="#FEFECE" filter="url(#f6711dhaprdfr)" height="141.7305" id="ComponentBase" style="stroke: #A80036; stroke-width: 1.5;" width="232" x="144" y="585"/><ellipse cx="203.25" cy="601" fill="#ADD1B2" rx="11" ry="11" style="stroke: #A80036; stroke-width: 1.0;"/><path d="M206.2231,606.6431 Q205.6421,606.9419 205.0029,607.0913 Q204.3638,607.2407 203.6582,607.2407 Q201.1514,607.2407 199.8315,605.5889 Q198.5117,603.937 198.5117,600.8159 Q198.5117,597.6865 199.8315,596.0347 Q201.1514,594.3828 203.6582,594.3828 Q204.3638,594.3828 205.0112,594.5322 Q205.6587,594.6816 206.2231,594.9805 L206.2231,597.7031 Q205.5923,597.1221 204.9988,596.8523 Q204.4053,596.5825 203.7744,596.5825 Q202.4297,596.5825 201.7449,597.6492 Q201.0601,598.7158 201.0601,600.8159 Q201.0601,602.9077 201.7449,603.9744 Q202.4297,605.041 203.7744,605.041 Q204.4053,605.041 204.9988,604.7712 Q205.5923,604.5015 206.2231,603.9204 Z "/><text fill="#000000" font-family="sans-serif" font-size="12" lengthAdjust="spacingAndGlyphs" textLength="93" x="223.75" y="605.5352">ComponentBase</text><rect fill="#FFFFFF" height="16.1328" style="stroke: #000000; stroke-width: 1.0; stroke-dasharray: 2.0,2.0;" width="10" x="369" y="582"/><text fill="#000000" font-family="sans-serif" font-size="12" font-style="italic" lengthAdjust="spacingAndGlyphs" textLength="8" x="370" y="594.6016">T</text><line style="stroke: #A80036; stroke-width: 1.5;" x1="145" x2="375" y1="617" y2="617"/><text fill="#000000" font-family="sans-serif" font-size="11" font-weight="bold" lengthAdjust="spacingAndGlyphs" textLength="79" x="150" y="631.6348">key functions:</text><line style="stroke: #A80036; stroke-width: 1.0;" x1="145" x2="375" y1="637.9551" y2="637.9551"/><text fill="#000000" font-family="sans-serif" font-size="11" font-weight="bold" lengthAdjust="spacingAndGlyphs" textLength="159" x="150" y="652.5898">public showFeedback(): void</text><text fill="#000000" font-family="sans-serif" font-size="11" lengthAdjust="spacingAndGlyphs" textLength="217" x="150" y="665.5449">Sets the feedback state of the interaction</text><line style="stroke: #A80036; stroke-width: 1.0;" x1="145" x2="375" y1="671.8652" y2="671.8652"/><text fill="#000000" font-family="sans-serif" font-size="11" font-weight="bold" lengthAdjust="spacingAndGlyphs" textLength="220" x="150" y="686.5">public getFeedback(): FeedbackMessage</text><line style="stroke: #A80036; stroke-width: 1.0;" x1="145" x2="375" y1="692.8203" y2="692.8203"/><text fill="#000000" font-family="sans-serif" font-size="11" font-weight="bold" lengthAdjust="spacingAndGlyphs" textLength="110" x="150" y="707.4551">public getValue(): T</text><text fill="#000000" font-family="sans-serif" font-size="11" lengthAdjust="spacingAndGlyphs" textLength="188" x="150" y="720.4102">Returns the value of the interaction</text><path d="M411.5,635.5 L411.5,652 L376.016,656 L411.5,660 L411.5,676.1211 A0,0 0 0 0 411.5,676.1211 L548.5,676.1211 A0,0 0 0 0 548.5,676.1211 L548.5,645.5 L538.5,635.5 L411.5,635.5 A0,0 0 0 0 411.5,635.5 " fill="#FBFB77" filter="url(#f6711dhaprdfr)" style="stroke: #A80036; stroke-width: 1.0;"/><path d="M538.5,635.5 L538.5,645.5 L548.5,645.5 L538.5,635.5 " fill="#FBFB77" style="stroke: #A80036; stroke-width: 1.0;"/><text fill="#000000" font-family="sans-serif" font-size="13" lengthAdjust="spacingAndGlyphs" textLength="112" x="417.5" y="653.0684">Super class for all</text><text fill="#000000" font-family="sans-serif" font-size="13" lengthAdjust="spacingAndGlyphs" textLength="75" x="417.5" y="668.3789">interactions</text><!--class LitElement--><rect fill="#FEFECE" filter="url(#f6711dhaprdfr)" height="86.8652" id="LitElement" style="stroke: #A80036; stroke-width: 1.5;" width="345" x="87.5" y="787"/><ellipse cx="226.25" cy="803" fill="#ADD1B2" rx="11" ry="11" style="stroke: #A80036; stroke-width: 1.0;"/><path d="M229.2231,808.6431 Q228.6421,808.9419 228.0029,809.0913 Q227.3638,809.2407 226.6582,809.2407 Q224.1514,809.2407 222.8315,807.5889 Q221.5117,805.937 221.5117,802.8159 Q221.5117,799.6865 222.8315,798.0347 Q224.1514,796.3828 226.6582,796.3828 Q227.3638,796.3828 228.0112,796.5322 Q228.6587,796.6816 229.2231,796.9805 L229.2231,799.7031 Q228.5923,799.1221 227.9988,798.8523 Q227.4053,798.5825 226.7744,798.5825 Q225.4297,798.5825 224.7449,799.6492 Q224.0601,800.7158 224.0601,802.8159 Q224.0601,804.9077 224.7449,805.9744 Q225.4297,807.041 226.7744,807.041 Q227.4053,807.041 227.9988,806.7712 Q228.5923,806.5015 229.2231,805.9204 Z "/><text fill="#000000" font-family="sans-serif" font-size="12" lengthAdjust="spacingAndGlyphs" textLength="59" x="246.75" y="807.5352">LitElement</text><line style="stroke: #A80036; stroke-width: 1.5;" x1="88.5" x2="431.5" y1="819" y2="819"/><text fill="#000000" font-family="sans-serif" font-size="11" font-weight="bold" lengthAdjust="spacingAndGlyphs" textLength="79" x="93.5" y="833.6348">key functions:</text><line style="stroke: #A80036; stroke-width: 1.0;" x1="88.5" x2="431.5" y1="839.9551" y2="839.9551"/><text fill="#000000" font-family="sans-serif" font-size="11" font-weight="bold" lengthAdjust="spacingAndGlyphs" textLength="282" x="93.5" y="854.5898">protected _render(_props: object): TemplateResult;</text><text fill="#000000" font-family="sans-serif" font-size="11" lengthAdjust="spacingAndGlyphs" textLength="333" x="93.5" y="867.5449">Render using an HTML template. Overridden by the interaction</text><path d="M467.5,810 L467.5,826.5 L432.662,830.5 L467.5,834.5 L467.5,850.6211 A0,0 0 0 0 467.5,850.6211 L744.5,850.6211 A0,0 0 0 0 744.5,850.6211 L744.5,820 L734.5,810 L467.5,810 A0,0 0 0 0 467.5,810 " fill="#FBFB77" filter="url(#f6711dhaprdfr)" style="stroke: #A80036; stroke-width: 1.0;"/><path d="M734.5,810 L734.5,820 L744.5,820 L734.5,810 " fill="#FBFB77" style="stroke: #A80036; stroke-width: 1.0;"/><text fill="#000000" font-family="sans-serif" font-size="13" lengthAdjust="spacingAndGlyphs" textLength="201" x="473.5" y="827.5684">A simple base class for creating</text><text fill="#000000" font-family="sans-serif" font-size="13" lengthAdjust="spacingAndGlyphs" textLength="256" x="473.5" y="842.8789">custom elements rendered with lit-html.</text><!--link Feedback to MultipleChoiceQuestion--><path d="M260,129.348 C260,142.056 260,155.61 260,168.752 " fill="none" id="Feedback-MultipleChoiceQuestion" style="stroke: #A80036; stroke-width: 1.0;"/><polygon fill="none" points="267,168.884,260,188.884,253,168.884,267,168.884" style="stroke: #A80036; stroke-width: 1.0;"/><!--link MultipleChoiceQuestion to MultipleChoice--><path d="M260,297.04 C260,313.828 260,332.863 260,351.442 " fill="none" id="MultipleChoiceQuestion-MultipleChoice" style="stroke: #A80036; stroke-width: 1.0;"/><polygon fill="#A80036" points="260,356.667,264,347.667,260,351.667,256,347.667,260,356.667" style="stroke: #A80036; stroke-width: 1.0;"/><!--link MultipleChoice to ComponentBase--><path d="M260,525.266 C260,543.137 260,561.925 260,579.482 " fill="none" id="MultipleChoice-ComponentBase" style="stroke: #A80036; stroke-width: 1.0;"/><polygon fill="#A80036" points="260,584.889,264,575.889,260,579.889,256,575.889,260,584.889" style="stroke: #A80036; stroke-width: 1.0;"/><!--link ComponentBase to LitElement--><path d="M260,727.162 C260,745.421 260,764.677 260,781.4993 " fill="none" id="ComponentBase-LitElement" style="stroke: #A80036; stroke-width: 1.0;"/><polygon fill="#A80036" points="260,786.6379,264,777.6379,260,781.6379,256,777.6379,260,786.6379" style="stroke: #A80036; stroke-width: 1.0;"/><!--
@startuml multiple-choice-question-class-diagram

interface Feedback {
    <b>key functions:</b>
    - -
    <b>computeFeedback()</b>
    Determine feedback state (via componentBase)
    - -
    <b>_onFeedbackSlotChanged()</b>
    Place Feedback slot elements into the interaction render template
}

Feedback - -|> MultipleChoiceQuestion

note right of MultipleChoiceQuestion: The interaction.\nContains an HTML render template.\nDefines HTML tag <drop-down>  
class MultipleChoiceQuestion {
    <b>key functions:</b>
    - -
    <b>protected _render({ items, feedbackMessage }: MultipleChoiceQuestion): TemplateResult </b>
    Renders the Multiple Choice Question using an HTML template.
    Re-renders whenever any of the parameters change.
    - -
}

MultipleChoiceQuestion - -> MultipleChoice
note right of MultipleChoice: Super class for all \ninteractions of this type 
class MultipleChoice<string[]>  {
    <b>key functions:</b>
    - -
    <b>protected _onItemClicked\n<b>(event: Event, selected: string, multiple: boolean = false): void</b>\nClick handler for option items. Sets the value of the interaction
    - -
    <b>public match(el: ResponseValidation, response: string[]): boolean</b>
    Determine if the value of this interaction matches any of the responses
    - -
    <b>protected _onSlotChanged(event: Event): void</b>
    Place item elements into the interaction render template
}

MultipleChoice - -> ComponentBase
note right of ComponentBase: Super class for all \ninteractions
class ComponentBase<T> {
    <b>key functions:</b>
    - -
    <b>public showFeedback(): void</b>
    Sets the feedback state of the interaction
    - -
    <b>public getFeedback(): FeedbackMessage</b>
    - -
    <b>public getValue(): T</b>
    Returns the value of the interaction
}

ComponentBase - -> LitElement
note right of LitElement: A simple base class for creating\ncustom elements rendered with lit-html.
class LitElement {
    <b>key functions:</b>
    - -
    <b>protected _render(_props: object): TemplateResult;</b>
    Render using an HTML template. Overridden by the interaction
}

@enduml

PlantUML version 1.2018.03(Thu Apr 05 12:59:15 EDT 2018)
(GPL source distribution)
Java Runtime: Java(TM) SE Runtime Environment
JVM: Java HotSpot(TM) 64-Bit Server VM
Java Version: 1.8.0_40-b26
Operating System: Mac OS X
OS Version: 10.13.6
Default Encoding: UTF-8
Language: en
Country: CA
--></g></svg>