<?xml version="1.0" encoding="UTF-8" standalone="no"?><svg xmlns="http://www.w3.org/2000/svg" xmlns:xlink="http://www.w3.org/1999/xlink" contentScriptType="application/ecmascript" contentStyleType="text/css" height="487px" preserveAspectRatio="none" style="width:337px;height:487px;" version="1.1" viewBox="0 0 337 487" width="337px" zoomAndPan="magnify"><defs><filter height="300%" id="f7z354k2st57u" width="300%" x="-1" y="-1"><feGaussianBlur result="blurOut" stdDeviation="2.0"/><feColorMatrix in="blurOut" result="blurOut2" type="matrix" values="0 0 0 0 0 0 0 0 0 0 0 0 0 0 0 0 0 0 .4 0"/><feOffset dx="4.0" dy="4.0" in="blurOut2" result="blurOut3"/><feBlend in="SourceGraphic" in2="blurOut3" mode="normal"/></filter></defs><g><ellipse cx="166.5" cy="18" fill="#000000" filter="url(#f7z354k2st57u)" rx="10" ry="10" style="stroke: none; stroke-width: 1.0;"/><rect fill="#FEFECE" filter="url(#f7z354k2st57u)" height="48.2656" rx="12.5" ry="12.5" style="stroke: #A80036; stroke-width: 1.5;" width="215" x="59" y="69"/><text fill="#000000" font-family="sans-serif" font-size="12" font-weight="bold" lengthAdjust="spacingAndGlyphs" textLength="194" x="69.5" y="90.6016">&lt;text-input&gt; ... &lt;/text-input&gt;</text><text fill="#000000" font-family="sans-serif" font-size="12" lengthAdjust="spacingAndGlyphs" textLength="195" x="69" y="104.7344">text input element added to page</text><rect fill="#FEFECE" filter="url(#f7z354k2st57u)" height="48.2656" rx="12.5" ry="12.5" style="stroke: #A80036; stroke-width: 1.5;" width="319" x="7" y="158"/><text fill="#000000" font-family="sans-serif" font-size="12" font-weight="bold" lengthAdjust="spacingAndGlyphs" textLength="167" x="77.5" y="179.6016">_onFeedbackSlotChanged()</text><text fill="#000000" font-family="sans-serif" font-size="12" lengthAdjust="spacingAndGlyphs" textLength="7" x="248.5" y="179.6016">-</text><text fill="#000000" font-family="sans-serif" font-size="12" lengthAdjust="spacingAndGlyphs" textLength="299" x="17" y="193.7344">Feedback items (answers) added to HTML template</text><rect fill="#FEFECE" filter="url(#f7z354k2st57u)" height="48.2656" rx="12.5" ry="12.5" style="stroke: #A80036; stroke-width: 1.5;" width="274" x="29.5" y="247"/><text fill="#000000" font-family="sans-serif" font-size="12" font-weight="bold" lengthAdjust="spacingAndGlyphs" textLength="243" x="39.5" y="268.6016">_render({ .. feedbackMessage, value ... })</text><text fill="#000000" font-family="sans-serif" font-size="12" lengthAdjust="spacingAndGlyphs" textLength="7" x="286.5" y="268.6016">-</text><text fill="#000000" font-family="sans-serif" font-size="12" lengthAdjust="spacingAndGlyphs" textLength="156" x="88.5" y="282.7344">Render the HTML template</text><polygon fill="#FEFECE" filter="url(#f7z354k2st57u)" points="137.5,336,149.5,348,137.5,360,125.5,348,137.5,336" style="stroke: #A80036; stroke-width: 1.5;"/><rect fill="#FEFECE" filter="url(#f7z354k2st57u)" height="62.3984" rx="12.5" ry="12.5" style="stroke: #A80036; stroke-width: 1.5;" width="307" x="6" y="414"/><text fill="#000000" font-family="sans-serif" font-size="12" font-weight="bold" lengthAdjust="spacingAndGlyphs" textLength="99" x="110" y="435.6016">showFeedback()</text><text fill="#000000" font-family="sans-serif" font-size="12" lengthAdjust="spacingAndGlyphs" textLength="199" x="60" y="449.7344">update feedbackMessage variable</text><text fill="#000000" font-family="sans-serif" font-size="12" lengthAdjust="spacingAndGlyphs" textLength="287" x="16" y="463.8672">(change to feedbackMessage will trigger render())</text><!--link start to <b><text-input> ... </text-input></b>\ntext input element added to page--><path d="M166.5,28.246 C166.5,37.108 166.5,50.951 166.5,63.477 " fill="none" id="start-&lt;b&gt;&lt;text-input&gt; ... &lt;/text-input&gt;&lt;/b&gt;\ntext input element added to page" style="stroke: #A80036; stroke-width: 1.0;"/><polygon fill="#A80036" points="166.5,68.746,170.5,59.746,166.5,63.746,162.5,59.746,166.5,68.746" style="stroke: #A80036; stroke-width: 1.0;"/><!--link <b><text-input> ... </text-input></b>\ntext input element added to page to init--><path d="M166.5,117.314 C166.5,128.226 166.5,141.316 166.5,152.782 " fill="none" id="&lt;b&gt;&lt;text-input&gt; ... &lt;/text-input&gt;&lt;/b&gt;\ntext input element added to page-init" style="stroke: #A80036; stroke-width: 1.0;"/><polygon fill="#A80036" points="166.5,157.923,170.5,148.923,166.5,152.923,162.5,148.923,166.5,157.923" style="stroke: #A80036; stroke-width: 1.0;"/><!--link init to render--><path d="M166.5,206.314 C166.5,217.226 166.5,230.316 166.5,241.782 " fill="none" id="init-render" style="stroke: #A80036; stroke-width: 1.0;"/><polygon fill="#A80036" points="166.5,246.923,170.5,237.923,166.5,241.923,162.5,237.923,166.5,246.923" style="stroke: #A80036; stroke-width: 1.0;"/><!--link render to #9--><path d="M157.483,295.319 C152.568,308.031 146.667,323.293 142.557,333.922 " fill="none" id="render-#9" style="stroke: #A80036; stroke-width: 1.0;"/><polygon fill="#A80036" points="140.695,338.737,147.6708,331.7844,142.4976,334.0733,140.2088,328.9002,140.695,338.737" style="stroke: #A80036; stroke-width: 1.0;"/><text fill="#000000" font-family="sans-serif" font-size="11" lengthAdjust="spacingAndGlyphs" textLength="102" x="157.2922" y="332.8437">User clicks validate</text><!--link #9 to <b>showFeedback()</b>\nupdate feedbackMessage variable\n(change to feedbackMessage will trigger render())--><path d="M137.329,359.854 C137.396,369.048 137.996,382.5253 140.5,394 C141.569,398.8992 143.033,403.9563 144.677,408.8867 " fill="none" id="#9-&lt;b&gt;showFeedback()&lt;/b&gt;\nupdate feedbackMessage variable\n(change to feedbackMessage will trigger render())" style="stroke: #A80036; stroke-width: 1.0;"/><polygon fill="#A80036" points="146.373,413.7643,147.1951,403.9498,144.7308,409.0417,139.6389,406.5773,146.373,413.7643" style="stroke: #A80036; stroke-width: 1.0;"/><text fill="#000000" font-family="sans-serif" font-size="11" lengthAdjust="spacingAndGlyphs" textLength="22" x="141.5" y="391.6348">true</text><!--link <b>showFeedback()</b>\nupdate feedbackMessage variable\n(change to feedbackMessage will trigger render()) to render--><path d="M163.66,413.9083 C164.412,407.3582 165.087,400.4565 165.5,394 C167.543,362.03 167.521,325.253 167.161,300.508 " fill="none" id="&lt;b&gt;showFeedback()&lt;/b&gt;\nupdate feedbackMessage variable\n(change to feedbackMessage will trigger render())-render" style="stroke: #A80036; stroke-width: 1.0;"/><polygon fill="#A80036" points="167.08,295.416,163.2245,304.4789,167.16,300.4154,171.2235,304.3508,167.08,295.416" style="stroke: #A80036; stroke-width: 1.0;"/><!--
@startuml text-input-process-diagram
         
(*) - -> "<b><text-input> ... </text-input></b>
        text input element added to page
        "  

    - -> "<b>_onFeedbackSlotChanged()</b> - 
         Feedback items (answers) added to HTML template
         " as init

    - ->  "<b>_render({ .. feedbackMessage, value ... })</b> - 
         Render the HTML template
         " as render

if "User clicks validate" then
  - ->[true] "<b>showFeedback()</b>
    update feedbackMessage variable
    (change to feedbackMessage will trigger render())"
    - -> render
endif

@enduml

PlantUML version 1.2018.03(Thu Apr 05 12:59:15 EDT 2018)
(GPL source distribution)
Java Runtime: Java(TM) SE Runtime Environment
JVM: Java HotSpot(TM) 64-Bit Server VM
Java Version: 1.8.0_40-b26
Operating System: Mac OS X
OS Version: 10.13.6
Default Encoding: UTF-8
Language: en
Country: CA
--></g></svg>