<?xml version="1.0" encoding="UTF-8" standalone="no"?><svg xmlns="http://www.w3.org/2000/svg" xmlns:xlink="http://www.w3.org/1999/xlink" contentScriptType="application/ecmascript" contentStyleType="text/css" height="729px" preserveAspectRatio="none" style="width:847px;height:729px;" version="1.1" viewBox="0 0 847 729" width="847px" zoomAndPan="magnify"><defs><filter height="300%" id="fr9xfnnboibux" width="300%" x="-1" y="-1"><feGaussianBlur result="blurOut" stdDeviation="2.0"/><feColorMatrix in="blurOut" result="blurOut2" type="matrix" values="0 0 0 0 0 0 0 0 0 0 0 0 0 0 0 0 0 0 .4 0"/><feOffset dx="4.0" dy="4.0" in="blurOut2" result="blurOut3"/><feBlend in="SourceGraphic" in2="blurOut3" mode="normal"/></filter></defs><g><!--class Feedback--><rect fill="#FEFECE" filter="url(#fr9xfnnboibux)" height="120.7754" id="Feedback" style="stroke: #A80036; stroke-width: 1.5;" width="359" x="102" y="8"/><ellipse cx="249.25" cy="24" fill="#B4A7E5" rx="11" ry="11" style="stroke: #A80036; stroke-width: 1.0;"/><path d="M245.1777,19.7651 L245.1777,17.6069 L252.5571,17.6069 L252.5571,19.7651 L250.0918,19.7651 L250.0918,27.8418 L252.5571,27.8418 L252.5571,30 L245.1777,30 L245.1777,27.8418 L247.6431,27.8418 L247.6431,19.7651 Z "/><text fill="#000000" font-family="sans-serif" font-size="12" font-style="italic" lengthAdjust="spacingAndGlyphs" textLength="56" x="269.75" y="28.5352">Feedback</text><line style="stroke: #A80036; stroke-width: 1.5;" x1="103" x2="460" y1="40" y2="40"/><text fill="#000000" font-family="sans-serif" font-size="11" font-weight="bold" lengthAdjust="spacingAndGlyphs" textLength="79" x="108" y="54.6348">key functions:</text><line style="stroke: #A80036; stroke-width: 1.0;" x1="103" x2="460" y1="60.9551" y2="60.9551"/><text fill="#000000" font-family="sans-serif" font-size="11" font-weight="bold" lengthAdjust="spacingAndGlyphs" textLength="107" x="108" y="75.5898">computeFeedback()</text><text fill="#000000" font-family="sans-serif" font-size="11" lengthAdjust="spacingAndGlyphs" textLength="249" x="108" y="88.5449">Determine feedback state (via componentBase)</text><line style="stroke: #A80036; stroke-width: 1.0;" x1="103" x2="460" y1="94.8652" y2="94.8652"/><text fill="#000000" font-family="sans-serif" font-size="11" font-weight="bold" lengthAdjust="spacingAndGlyphs" textLength="148" x="108" y="109.5">_onFeedbackSlotChanged()</text><text fill="#000000" font-family="sans-serif" font-size="11" lengthAdjust="spacingAndGlyphs" textLength="347" x="108" y="122.4551">Place Feedback slot elements into the interaction render template</text><!--class TextInput--><rect fill="#FEFECE" filter="url(#fr9xfnnboibux)" height="180.5957" id="TextInput" style="stroke: #A80036; stroke-width: 1.5;" width="551" x="6" y="189"/><ellipse cx="231.75" cy="205" fill="#ADD1B2" rx="11" ry="11" style="stroke: #A80036; stroke-width: 1.0;"/><path d="M234.7231,210.6431 Q234.1421,210.9419 233.5029,211.0913 Q232.8638,211.2407 232.1582,211.2407 Q229.6514,211.2407 228.3315,209.5889 Q227.0117,207.937 227.0117,204.8159 Q227.0117,201.6865 228.3315,200.0347 Q229.6514,198.3828 232.1582,198.3828 Q232.8638,198.3828 233.5112,198.5322 Q234.1587,198.6816 234.7231,198.9805 L234.7231,201.7031 Q234.0923,201.1221 233.4988,200.8523 Q232.9053,200.5825 232.2744,200.5825 Q230.9297,200.5825 230.2449,201.6492 Q229.5601,202.7158 229.5601,204.8159 Q229.5601,206.9077 230.2449,207.9744 Q230.9297,209.041 232.2744,209.041 Q232.9053,209.041 233.4988,208.7712 Q234.0923,208.5015 234.7231,207.9204 Z "/><text fill="#000000" font-family="sans-serif" font-size="12" lengthAdjust="spacingAndGlyphs" textLength="55" x="252.25" y="209.5352">TextInput</text><rect fill="#FFFFFF" height="16.1328" style="stroke: #000000; stroke-width: 1.0; stroke-dasharray: 2.0,2.0;" width="34" x="526" y="186"/><text fill="#000000" font-family="sans-serif" font-size="12" font-style="italic" lengthAdjust="spacingAndGlyphs" textLength="32" x="527" y="198.6016">string</text><line style="stroke: #A80036; stroke-width: 1.5;" x1="7" x2="556" y1="221" y2="221"/><text fill="#000000" font-family="sans-serif" font-size="11" font-weight="bold" lengthAdjust="spacingAndGlyphs" textLength="79" x="12" y="235.6348">key functions:</text><line style="stroke: #A80036; stroke-width: 1.0;" x1="7" x2="556" y1="241.9551" y2="241.9551"/><text fill="#000000" font-family="sans-serif" font-size="11" font-weight="bold" lengthAdjust="spacingAndGlyphs" textLength="98" x="12" y="256.5898">protected _render</text><text fill="#000000" font-family="sans-serif" font-size="11" font-weight="bold" lengthAdjust="spacingAndGlyphs" textLength="489" x="12" y="269.5449">protected _render({ disabled, feedback, placeholder, value }: TextInput): TemplateResult</text><text fill="#000000" font-family="sans-serif" font-size="11" lengthAdjust="spacingAndGlyphs" textLength="286" x="12" y="282.5">Renders the text input menu using an HTML template.</text><text fill="#000000" font-family="sans-serif" font-size="11" lengthAdjust="spacingAndGlyphs" textLength="280" x="12" y="295.4551">Re-renders whenever any of the parameters change.</text><line style="stroke: #A80036; stroke-width: 1.0;" x1="7" x2="556" y1="301.7754" y2="301.7754"/><text fill="#000000" font-family="sans-serif" font-size="11" font-weight="bold" lengthAdjust="spacingAndGlyphs" textLength="228" x="12" y="316.4102">private _onInputChange(evt: Event): void</text><text fill="#000000" font-family="sans-serif" font-size="11" lengthAdjust="spacingAndGlyphs" textLength="296" x="12" y="329.3652">Called whenever the contents of the input field changes</text><line style="stroke: #A80036; stroke-width: 1.0;" x1="7" x2="556" y1="335.6855" y2="335.6855"/><text fill="#000000" font-family="sans-serif" font-size="11" font-weight="bold" lengthAdjust="spacingAndGlyphs" textLength="364" x="12" y="350.3203">public match(el: ResponseValidation, response: string[]): boolean</text><text fill="#000000" font-family="sans-serif" font-size="11" lengthAdjust="spacingAndGlyphs" textLength="539" x="12" y="363.2754">Determine if the value of this interaction (the contents of the text field) matches any of the responses</text><path d="M592,251.5 L592,275.5 L557.406,279.5 L592,283.5 L592,307.4316 A0,0 0 0 0 592,307.4316 L835,307.4316 A0,0 0 0 0 835,307.4316 L835,261.5 L825,251.5 L592,251.5 A0,0 0 0 0 592,251.5 " fill="#FBFB77" filter="url(#fr9xfnnboibux)" style="stroke: #A80036; stroke-width: 1.0;"/><path d="M825,251.5 L825,261.5 L835,261.5 L825,251.5 " fill="#FBFB77" style="stroke: #A80036; stroke-width: 1.0;"/><text fill="#000000" font-family="sans-serif" font-size="13" lengthAdjust="spacingAndGlyphs" textLength="99" x="598" y="269.0684">The interaction.</text><text fill="#000000" font-family="sans-serif" font-size="13" lengthAdjust="spacingAndGlyphs" textLength="222" x="598" y="284.3789">Contains an HTML render template.</text><text fill="#000000" font-family="sans-serif" font-size="13" lengthAdjust="spacingAndGlyphs" textLength="202" x="598" y="299.6895">Defines HTML tag &lt;text-input&gt;</text><!--class ComponentBase--><rect fill="#FEFECE" filter="url(#fr9xfnnboibux)" height="141.7305" id="ComponentBase" style="stroke: #A80036; stroke-width: 1.5;" width="232" x="165.5" y="430"/><ellipse cx="224.75" cy="446" fill="#ADD1B2" rx="11" ry="11" style="stroke: #A80036; stroke-width: 1.0;"/><path d="M227.7231,451.6431 Q227.1421,451.9419 226.5029,452.0913 Q225.8638,452.2407 225.1582,452.2407 Q222.6514,452.2407 221.3315,450.5889 Q220.0117,448.937 220.0117,445.8159 Q220.0117,442.6865 221.3315,441.0347 Q222.6514,439.3828 225.1582,439.3828 Q225.8638,439.3828 226.5112,439.5322 Q227.1587,439.6816 227.7231,439.9805 L227.7231,442.7031 Q227.0923,442.1221 226.4988,441.8523 Q225.9053,441.5825 225.2744,441.5825 Q223.9297,441.5825 223.2449,442.6492 Q222.5601,443.7158 222.5601,445.8159 Q222.5601,447.9077 223.2449,448.9744 Q223.9297,450.041 225.2744,450.041 Q225.9053,450.041 226.4988,449.7712 Q227.0923,449.5015 227.7231,448.9204 Z "/><text fill="#000000" font-family="sans-serif" font-size="12" lengthAdjust="spacingAndGlyphs" textLength="93" x="245.25" y="450.5352">ComponentBase</text><rect fill="#FFFFFF" height="16.1328" style="stroke: #000000; stroke-width: 1.0; stroke-dasharray: 2.0,2.0;" width="10" x="390.5" y="427"/><text fill="#000000" font-family="sans-serif" font-size="12" font-style="italic" lengthAdjust="spacingAndGlyphs" textLength="8" x="391.5" y="439.6016">T</text><line style="stroke: #A80036; stroke-width: 1.5;" x1="166.5" x2="396.5" y1="462" y2="462"/><text fill="#000000" font-family="sans-serif" font-size="11" font-weight="bold" lengthAdjust="spacingAndGlyphs" textLength="79" x="171.5" y="476.6348">key functions:</text><line style="stroke: #A80036; stroke-width: 1.0;" x1="166.5" x2="396.5" y1="482.9551" y2="482.9551"/><text fill="#000000" font-family="sans-serif" font-size="11" font-weight="bold" lengthAdjust="spacingAndGlyphs" textLength="159" x="171.5" y="497.5898">public showFeedback(): void</text><text fill="#000000" font-family="sans-serif" font-size="11" lengthAdjust="spacingAndGlyphs" textLength="217" x="171.5" y="510.5449">Sets the feedback state of the interaction</text><line style="stroke: #A80036; stroke-width: 1.0;" x1="166.5" x2="396.5" y1="516.8652" y2="516.8652"/><text fill="#000000" font-family="sans-serif" font-size="11" font-weight="bold" lengthAdjust="spacingAndGlyphs" textLength="220" x="171.5" y="531.5">public getFeedback(): FeedbackMessage</text><line style="stroke: #A80036; stroke-width: 1.0;" x1="166.5" x2="396.5" y1="537.8203" y2="537.8203"/><text fill="#000000" font-family="sans-serif" font-size="11" font-weight="bold" lengthAdjust="spacingAndGlyphs" textLength="110" x="171.5" y="552.4551">public getValue(): T</text><text fill="#000000" font-family="sans-serif" font-size="11" lengthAdjust="spacingAndGlyphs" textLength="188" x="171.5" y="565.4102">Returns the value of the interaction</text><path d="M433,480.5 L433,497 L397.516,501 L433,505 L433,521.1211 A0,0 0 0 0 433,521.1211 L570,521.1211 A0,0 0 0 0 570,521.1211 L570,490.5 L560,480.5 L433,480.5 A0,0 0 0 0 433,480.5 " fill="#FBFB77" filter="url(#fr9xfnnboibux)" style="stroke: #A80036; stroke-width: 1.0;"/><path d="M560,480.5 L560,490.5 L570,490.5 L560,480.5 " fill="#FBFB77" style="stroke: #A80036; stroke-width: 1.0;"/><text fill="#000000" font-family="sans-serif" font-size="13" lengthAdjust="spacingAndGlyphs" textLength="112" x="439" y="498.0684">Super class for all</text><text fill="#000000" font-family="sans-serif" font-size="13" lengthAdjust="spacingAndGlyphs" textLength="75" x="439" y="513.3789">interactions</text><!--class LitElement--><rect fill="#FEFECE" filter="url(#fr9xfnnboibux)" height="86.8652" id="LitElement" style="stroke: #A80036; stroke-width: 1.5;" width="345" x="109" y="632"/><ellipse cx="247.75" cy="648" fill="#ADD1B2" rx="11" ry="11" style="stroke: #A80036; stroke-width: 1.0;"/><path d="M250.7231,653.6431 Q250.1421,653.9419 249.5029,654.0913 Q248.8638,654.2407 248.1582,654.2407 Q245.6514,654.2407 244.3315,652.5889 Q243.0117,650.937 243.0117,647.8159 Q243.0117,644.6865 244.3315,643.0347 Q245.6514,641.3828 248.1582,641.3828 Q248.8638,641.3828 249.5112,641.5322 Q250.1587,641.6816 250.7231,641.9805 L250.7231,644.7031 Q250.0923,644.1221 249.4988,643.8523 Q248.9053,643.5825 248.2744,643.5825 Q246.9297,643.5825 246.2449,644.6492 Q245.5601,645.7158 245.5601,647.8159 Q245.5601,649.9077 246.2449,650.9744 Q246.9297,652.041 248.2744,652.041 Q248.9053,652.041 249.4988,651.7712 Q250.0923,651.5015 250.7231,650.9204 Z "/><text fill="#000000" font-family="sans-serif" font-size="12" lengthAdjust="spacingAndGlyphs" textLength="59" x="268.25" y="652.5352">LitElement</text><line style="stroke: #A80036; stroke-width: 1.5;" x1="110" x2="453" y1="664" y2="664"/><text fill="#000000" font-family="sans-serif" font-size="11" font-weight="bold" lengthAdjust="spacingAndGlyphs" textLength="79" x="115" y="678.6348">key functions:</text><line style="stroke: #A80036; stroke-width: 1.0;" x1="110" x2="453" y1="684.9551" y2="684.9551"/><text fill="#000000" font-family="sans-serif" font-size="11" font-weight="bold" lengthAdjust="spacingAndGlyphs" textLength="282" x="115" y="699.5898">protected _render(_props: object): TemplateResult;</text><text fill="#000000" font-family="sans-serif" font-size="11" lengthAdjust="spacingAndGlyphs" textLength="333" x="115" y="712.5449">Render using an HTML template. Overridden by the interaction</text><path d="M489,655 L489,671.5 L454.162,675.5 L489,679.5 L489,695.6211 A0,0 0 0 0 489,695.6211 L766,695.6211 A0,0 0 0 0 766,695.6211 L766,665 L756,655 L489,655 A0,0 0 0 0 489,655 " fill="#FBFB77" filter="url(#fr9xfnnboibux)" style="stroke: #A80036; stroke-width: 1.0;"/><path d="M756,655 L756,665 L766,665 L756,655 " fill="#FBFB77" style="stroke: #A80036; stroke-width: 1.0;"/><text fill="#000000" font-family="sans-serif" font-size="13" lengthAdjust="spacingAndGlyphs" textLength="201" x="495" y="672.5684">A simple base class for creating</text><text fill="#000000" font-family="sans-serif" font-size="13" lengthAdjust="spacingAndGlyphs" textLength="256" x="495" y="687.8789">custom elements rendered with lit-html.</text><!--link Feedback to TextInput--><path d="M281.5,129.111 C281.5,141.45 281.5,154.82 281.5,168.316 " fill="none" id="Feedback-TextInput" style="stroke: #A80036; stroke-width: 1.0;"/><polygon fill="none" points="288.5,168.779,281.5,188.779,274.5,168.779,288.5,168.779" style="stroke: #A80036; stroke-width: 1.0;"/><!--link TextInput to ComponentBase--><path d="M281.5,370.096 C281.5,388.144 281.5,406.945 281.5,424.456 " fill="none" id="TextInput-ComponentBase" style="stroke: #A80036; stroke-width: 1.0;"/><polygon fill="#A80036" points="281.5,429.846,285.5,420.846,281.5,424.846,277.5,420.846,281.5,429.846" style="stroke: #A80036; stroke-width: 1.0;"/><!--link ComponentBase to LitElement--><path d="M281.5,572.162 C281.5,590.421 281.5,609.677 281.5,626.4993 " fill="none" id="ComponentBase-LitElement" style="stroke: #A80036; stroke-width: 1.0;"/><polygon fill="#A80036" points="281.5,631.6379,285.5,622.6379,281.5,626.6379,277.5,622.6379,281.5,631.6379" style="stroke: #A80036; stroke-width: 1.0;"/><!--
@startuml text-input-class-diagram

interface Feedback {
    <b>key functions:</b>
    - -
    <b>computeFeedback()</b>
    Determine feedback state (via componentBase)
    - -
    <b>_onFeedbackSlotChanged()</b>
    Place Feedback slot elements into the interaction render template
}

Feedback - -|> TextInput

note right of TextInput: The interaction.\nContains an HTML render template.\nDefines HTML tag <text-input>  
class TextInput<string> {
    <b>key functions:</b>
    - -
    <b>protected _render\n<b>protected _render({ disabled, feedback, placeholder, value }: TextInput): TemplateResult </b>
    Renders the text input menu using an HTML template.
    Re-renders whenever any of the parameters change.
    - -
    <b>private _onInputChange(evt: Event): void </b>\nCalled whenever the contents of the input field changes
    - -
    <b>public match(el: ResponseValidation, response: string[]): boolean</b>
    Determine if the value of this interaction (the contents of the text field) matches any of the responses
}

TextInput - -> ComponentBase
note right of ComponentBase: Super class for all \ninteractions
class ComponentBase<T> {
    <b>key functions:</b>
    - -
    <b>public showFeedback(): void</b>
    Sets the feedback state of the interaction
    - -
    <b>public getFeedback(): FeedbackMessage</b>
    - -
    <b>public getValue(): T</b>
    Returns the value of the interaction
}

ComponentBase - -> LitElement
note right of LitElement: A simple base class for creating\ncustom elements rendered with lit-html.
class LitElement {
    <b>key functions:</b>
    - -
    <b>protected _render(_props: object): TemplateResult;</b>
    Render using an HTML template. Overridden by the interaction
}

@enduml

PlantUML version 1.2018.03(Thu Apr 05 12:59:15 EDT 2018)
(GPL source distribution)
Java Runtime: Java(TM) SE Runtime Environment
JVM: Java HotSpot(TM) 64-Bit Server VM
Java Version: 1.8.0_40-b26
Operating System: Mac OS X
OS Version: 10.13.6
Default Encoding: UTF-8
Language: en
Country: CA
--></g></svg>