<?xml version="1.0" encoding="UTF-8" standalone="no"?><svg xmlns="http://www.w3.org/2000/svg" xmlns:xlink="http://www.w3.org/1999/xlink" contentScriptType="application/ecmascript" contentStyleType="text/css" height="740px" preserveAspectRatio="none" style="width:1245px;height:740px;" version="1.1" viewBox="0 0 1245 740" width="1245px" zoomAndPan="magnify"><defs><filter height="300%" id="f1peexorvjz9zl" width="300%" x="-1" y="-1"><feGaussianBlur result="blurOut" stdDeviation="2.0"/><feColorMatrix in="blurOut" result="blurOut2" type="matrix" values="0 0 0 0 0 0 0 0 0 0 0 0 0 0 0 0 0 0 .4 0"/><feOffset dx="4.0" dy="4.0" in="blurOut2" result="blurOut3"/><feBlend in="SourceGraphic" in2="blurOut3" mode="normal"/></filter></defs><g><text fill="#000000" font-family="sans-serif" font-size="18" lengthAdjust="spacingAndGlyphs" textLength="419" x="416.5" y="17.4023">Example of a typical multiple choice interaction.</text><!--class LitElement--><rect fill="#FEFECE" filter="url(#f1peexorvjz9zl)" height="86.8652" id="LitElement" style="stroke: #A80036; stroke-width: 1.5;" width="345" x="428" y="29.1992"/><ellipse cx="566.75" cy="45.1992" fill="#ADD1B2" rx="11" ry="11" style="stroke: #A80036; stroke-width: 1.0;"/><path d="M569.7231,50.8423 Q569.1421,51.1411 568.5029,51.2905 Q567.8638,51.4399 567.1582,51.4399 Q564.6514,51.4399 563.3315,49.7881 Q562.0117,48.1362 562.0117,45.0151 Q562.0117,41.8857 563.3315,40.2339 Q564.6514,38.582 567.1582,38.582 Q567.8638,38.582 568.5112,38.7314 Q569.1587,38.8809 569.7231,39.1797 L569.7231,41.9023 Q569.0923,41.3213 568.4988,41.0515 Q567.9053,40.7817 567.2744,40.7817 Q565.9297,40.7817 565.2449,41.8484 Q564.5601,42.915 564.5601,45.0151 Q564.5601,47.1069 565.2449,48.1736 Q565.9297,49.2402 567.2744,49.2402 Q567.9053,49.2402 568.4988,48.9705 Q569.0923,48.7007 569.7231,48.1196 Z "/><text fill="#000000" font-family="sans-serif" font-size="12" lengthAdjust="spacingAndGlyphs" textLength="59" x="587.25" y="49.7344">LitElement</text><line style="stroke: #A80036; stroke-width: 1.5;" x1="429" x2="772" y1="61.1992" y2="61.1992"/><text fill="#000000" font-family="sans-serif" font-size="11" font-weight="bold" lengthAdjust="spacingAndGlyphs" textLength="79" x="434" y="75.834">key functions:</text><line style="stroke: #A80036; stroke-width: 1.0;" x1="429" x2="772" y1="82.1543" y2="82.1543"/><text fill="#000000" font-family="sans-serif" font-size="11" font-weight="bold" lengthAdjust="spacingAndGlyphs" textLength="282" x="434" y="96.7891">protected _render(_props: object): TemplateResult;</text><text fill="#000000" font-family="sans-serif" font-size="11" lengthAdjust="spacingAndGlyphs" textLength="333" x="434" y="109.7441">Render using an HTML template. Overridden by the interaction</text><path d="M808,52.1992 L808,68.6992 L773.162,72.6992 L808,76.6992 L808,92.8203 A0,0 0 0 0 808,92.8203 L1085,92.8203 A0,0 0 0 0 1085,92.8203 L1085,62.1992 L1075,52.1992 L808,52.1992 A0,0 0 0 0 808,52.1992 " fill="#FBFB77" filter="url(#f1peexorvjz9zl)" style="stroke: #A80036; stroke-width: 1.0;"/><path d="M1075,52.1992 L1075,62.1992 L1085,62.1992 L1075,52.1992 " fill="#FBFB77" style="stroke: #A80036; stroke-width: 1.0;"/><text fill="#000000" font-family="sans-serif" font-size="13" lengthAdjust="spacingAndGlyphs" textLength="201" x="814" y="69.7676">A simple base class for creating</text><text fill="#000000" font-family="sans-serif" font-size="13" lengthAdjust="spacingAndGlyphs" textLength="256" x="814" y="85.0781">custom elements rendered with lit-html.</text><!--class ComponentBase--><rect fill="#FEFECE" filter="url(#f1peexorvjz9zl)" height="141.7305" id="ComponentBase" style="stroke: #A80036; stroke-width: 1.5;" width="232" x="484.5" y="177.1992"/><ellipse cx="543.75" cy="193.1992" fill="#ADD1B2" rx="11" ry="11" style="stroke: #A80036; stroke-width: 1.0;"/><path d="M546.7231,198.8423 Q546.1421,199.1411 545.5029,199.2905 Q544.8638,199.4399 544.1582,199.4399 Q541.6514,199.4399 540.3315,197.7881 Q539.0117,196.1362 539.0117,193.0151 Q539.0117,189.8857 540.3315,188.2339 Q541.6514,186.582 544.1582,186.582 Q544.8638,186.582 545.5112,186.7314 Q546.1587,186.8809 546.7231,187.1797 L546.7231,189.9023 Q546.0923,189.3213 545.4988,189.0515 Q544.9053,188.7817 544.2744,188.7817 Q542.9297,188.7817 542.2449,189.8484 Q541.5601,190.915 541.5601,193.0151 Q541.5601,195.1069 542.2449,196.1736 Q542.9297,197.2402 544.2744,197.2402 Q544.9053,197.2402 545.4988,196.9705 Q546.0923,196.7007 546.7231,196.1196 Z "/><text fill="#000000" font-family="sans-serif" font-size="12" lengthAdjust="spacingAndGlyphs" textLength="93" x="564.25" y="197.7344">ComponentBase</text><rect fill="#FFFFFF" height="16.1328" style="stroke: #000000; stroke-width: 1.0; stroke-dasharray: 2.0,2.0;" width="10" x="709.5" y="174.1992"/><text fill="#000000" font-family="sans-serif" font-size="12" font-style="italic" lengthAdjust="spacingAndGlyphs" textLength="8" x="710.5" y="186.8008">T</text><line style="stroke: #A80036; stroke-width: 1.5;" x1="485.5" x2="715.5" y1="209.1992" y2="209.1992"/><text fill="#000000" font-family="sans-serif" font-size="11" font-weight="bold" lengthAdjust="spacingAndGlyphs" textLength="79" x="490.5" y="223.834">key functions:</text><line style="stroke: #A80036; stroke-width: 1.0;" x1="485.5" x2="715.5" y1="230.1543" y2="230.1543"/><text fill="#000000" font-family="sans-serif" font-size="11" font-weight="bold" lengthAdjust="spacingAndGlyphs" textLength="159" x="490.5" y="244.7891">public showFeedback(): void</text><text fill="#000000" font-family="sans-serif" font-size="11" lengthAdjust="spacingAndGlyphs" textLength="217" x="490.5" y="257.7441">Sets the feedback state of the interaction</text><line style="stroke: #A80036; stroke-width: 1.0;" x1="485.5" x2="715.5" y1="264.0645" y2="264.0645"/><text fill="#000000" font-family="sans-serif" font-size="11" font-weight="bold" lengthAdjust="spacingAndGlyphs" textLength="220" x="490.5" y="278.6992">public getFeedback(): FeedbackMessage</text><line style="stroke: #A80036; stroke-width: 1.0;" x1="485.5" x2="715.5" y1="285.0195" y2="285.0195"/><text fill="#000000" font-family="sans-serif" font-size="11" font-weight="bold" lengthAdjust="spacingAndGlyphs" textLength="110" x="490.5" y="299.6543">public getValue(): T</text><text fill="#000000" font-family="sans-serif" font-size="11" lengthAdjust="spacingAndGlyphs" textLength="188" x="490.5" y="312.6094">Returns the value of the interaction</text><path d="M752,227.6992 L752,244.1992 L716.516,248.1992 L752,252.1992 L752,268.3203 A0,0 0 0 0 752,268.3203 L889,268.3203 A0,0 0 0 0 889,268.3203 L889,237.6992 L879,227.6992 L752,227.6992 A0,0 0 0 0 752,227.6992 " fill="#FBFB77" filter="url(#f1peexorvjz9zl)" style="stroke: #A80036; stroke-width: 1.0;"/><path d="M879,227.6992 L879,237.6992 L889,237.6992 L879,227.6992 " fill="#FBFB77" style="stroke: #A80036; stroke-width: 1.0;"/><text fill="#000000" font-family="sans-serif" font-size="13" lengthAdjust="spacingAndGlyphs" textLength="112" x="758" y="245.2676">Super class for all</text><text fill="#000000" font-family="sans-serif" font-size="13" lengthAdjust="spacingAndGlyphs" textLength="75" x="758" y="260.5781">interactions</text><!--class MultipleChoice--><rect fill="#FEFECE" filter="url(#f1peexorvjz9zl)" height="167.6406" id="MultipleChoice" style="stroke: #A80036; stroke-width: 1.5;" width="389" x="406" y="380.1992"/><ellipse cx="532.75" cy="396.1992" fill="#ADD1B2" rx="11" ry="11" style="stroke: #A80036; stroke-width: 1.0;"/><path d="M535.7231,401.8423 Q535.1421,402.1411 534.5029,402.2905 Q533.8638,402.4399 533.1582,402.4399 Q530.6514,402.4399 529.3315,400.7881 Q528.0117,399.1362 528.0117,396.0151 Q528.0117,392.8857 529.3315,391.2339 Q530.6514,389.582 533.1582,389.582 Q533.8638,389.582 534.5112,389.7314 Q535.1587,389.8809 535.7231,390.1797 L535.7231,392.9023 Q535.0923,392.3213 534.4988,392.0515 Q533.9053,391.7817 533.2744,391.7817 Q531.9297,391.7817 531.2449,392.8484 Q530.5601,393.915 530.5601,396.0151 Q530.5601,398.1069 531.2449,399.1736 Q531.9297,400.2402 533.2744,400.2402 Q533.9053,400.2402 534.4988,399.9705 Q535.0923,399.7007 535.7231,399.1196 Z "/><text fill="#000000" font-family="sans-serif" font-size="12" lengthAdjust="spacingAndGlyphs" textLength="83" x="553.25" y="400.7344">MultipleChoice</text><rect fill="#FFFFFF" height="16.1328" style="stroke: #000000; stroke-width: 1.0; stroke-dasharray: 2.0,2.0;" width="42" x="756" y="377.1992"/><text fill="#000000" font-family="sans-serif" font-size="12" font-style="italic" lengthAdjust="spacingAndGlyphs" textLength="40" x="757" y="389.8008">string[]</text><line style="stroke: #A80036; stroke-width: 1.5;" x1="407" x2="794" y1="412.1992" y2="412.1992"/><text fill="#000000" font-family="sans-serif" font-size="11" font-weight="bold" lengthAdjust="spacingAndGlyphs" textLength="79" x="412" y="426.834">key functions:</text><line style="stroke: #A80036; stroke-width: 1.0;" x1="407" x2="794" y1="433.1543" y2="433.1543"/><text fill="#000000" font-family="sans-serif" font-size="11" font-weight="bold" lengthAdjust="spacingAndGlyphs" textLength="143" x="412" y="447.7891">protected _onItemClicked</text><text fill="#000000" font-family="sans-serif" font-size="11" font-weight="bold" lengthAdjust="spacingAndGlyphs" textLength="349" x="412" y="460.7441">(event: Event, selected: string, multiple: boolean = false): void</text><text fill="#000000" font-family="sans-serif" font-size="11" lengthAdjust="spacingAndGlyphs" textLength="333" x="412" y="473.6992">Click handler for option items. Sets the value of the interaction</text><line style="stroke: #A80036; stroke-width: 1.0;" x1="407" x2="794" y1="480.0195" y2="480.0195"/><text fill="#000000" font-family="sans-serif" font-size="11" font-weight="bold" lengthAdjust="spacingAndGlyphs" textLength="364" x="412" y="494.6543">public match(el: ResponseValidation, response: string[]): boolean</text><text fill="#000000" font-family="sans-serif" font-size="11" lengthAdjust="spacingAndGlyphs" textLength="377" x="412" y="507.6094">Determine if the value of this interaction matches any of the responses</text><line style="stroke: #A80036; stroke-width: 1.0;" x1="407" x2="794" y1="513.9297" y2="513.9297"/><text fill="#000000" font-family="sans-serif" font-size="11" font-weight="bold" lengthAdjust="spacingAndGlyphs" textLength="253" x="412" y="528.5645">protected _onSlotChanged(event: Event): void</text><text fill="#000000" font-family="sans-serif" font-size="11" lengthAdjust="spacingAndGlyphs" textLength="297" x="412" y="541.5195">Place item elements into the interaction render template</text><path d="M830.5,443.6992 L830.5,460.1992 L795.223,464.1992 L830.5,468.1992 L830.5,484.3203 A0,0 0 0 0 830.5,484.3203 L1002.5,484.3203 A0,0 0 0 0 1002.5,484.3203 L1002.5,453.6992 L992.5,443.6992 L830.5,443.6992 A0,0 0 0 0 830.5,443.6992 " fill="#FBFB77" filter="url(#f1peexorvjz9zl)" style="stroke: #A80036; stroke-width: 1.0;"/><path d="M992.5,443.6992 L992.5,453.6992 L1002.5,453.6992 L992.5,443.6992 " fill="#FBFB77" style="stroke: #A80036; stroke-width: 1.0;"/><text fill="#000000" font-family="sans-serif" font-size="13" lengthAdjust="spacingAndGlyphs" textLength="112" x="836.5" y="461.2676">Super class for all</text><text fill="#000000" font-family="sans-serif" font-size="13" lengthAdjust="spacingAndGlyphs" textLength="151" x="836.5" y="476.5781">interactions of this type</text><!--class Feedback--><rect fill="#FEFECE" filter="url(#f1peexorvjz9zl)" height="120.7754" id="Feedback" style="stroke: #A80036; stroke-width: 1.5;" width="359" x="6" y="403.6992"/><ellipse cx="153.25" cy="419.6992" fill="#B4A7E5" rx="11" ry="11" style="stroke: #A80036; stroke-width: 1.0;"/><path d="M149.1777,415.4644 L149.1777,413.3062 L156.5571,413.3062 L156.5571,415.4644 L154.0918,415.4644 L154.0918,423.541 L156.5571,423.541 L156.5571,425.6992 L149.1777,425.6992 L149.1777,423.541 L151.6431,423.541 L151.6431,415.4644 Z "/><text fill="#000000" font-family="sans-serif" font-size="12" font-style="italic" lengthAdjust="spacingAndGlyphs" textLength="56" x="173.75" y="424.2344">Feedback</text><line style="stroke: #A80036; stroke-width: 1.5;" x1="7" x2="364" y1="435.6992" y2="435.6992"/><text fill="#000000" font-family="sans-serif" font-size="11" font-weight="bold" lengthAdjust="spacingAndGlyphs" textLength="79" x="12" y="450.334">key functions:</text><line style="stroke: #A80036; stroke-width: 1.0;" x1="7" x2="364" y1="456.6543" y2="456.6543"/><text fill="#000000" font-family="sans-serif" font-size="11" font-weight="bold" lengthAdjust="spacingAndGlyphs" textLength="107" x="12" y="471.2891">computeFeedback()</text><text fill="#000000" font-family="sans-serif" font-size="11" lengthAdjust="spacingAndGlyphs" textLength="249" x="12" y="484.2441">Determine feedback state (via componentBase)</text><line style="stroke: #A80036; stroke-width: 1.0;" x1="7" x2="364" y1="490.5645" y2="490.5645"/><text fill="#000000" font-family="sans-serif" font-size="11" font-weight="bold" lengthAdjust="spacingAndGlyphs" textLength="148" x="12" y="505.1992">_onFeedbackSlotChanged()</text><text fill="#000000" font-family="sans-serif" font-size="11" lengthAdjust="spacingAndGlyphs" textLength="347" x="12" y="518.1543">Place Feedback slot elements into the interaction render template</text><!--class Interaction--><rect fill="#FEFECE" filter="url(#f1peexorvjz9zl)" height="120.7754" id="Interaction" style="stroke: #A80036; stroke-width: 1.5;" width="331" x="435" y="609.1992"/><ellipse cx="566.25" cy="625.1992" fill="#ADD1B2" rx="11" ry="11" style="stroke: #A80036; stroke-width: 1.0;"/><path d="M569.2231,630.8423 Q568.6421,631.1411 568.0029,631.2905 Q567.3638,631.4399 566.6582,631.4399 Q564.1514,631.4399 562.8315,629.7881 Q561.5117,628.1362 561.5117,625.0151 Q561.5117,621.8857 562.8315,620.2339 Q564.1514,618.582 566.6582,618.582 Q567.3638,618.582 568.0112,618.7314 Q568.6587,618.8809 569.2231,619.1797 L569.2231,621.9023 Q568.5923,621.3213 567.9988,621.0515 Q567.4053,620.7817 566.7744,620.7817 Q565.4297,620.7817 564.7449,621.8484 Q564.0601,622.915 564.0601,625.0151 Q564.0601,627.1069 564.7449,628.1736 Q565.4297,629.2402 566.7744,629.2402 Q567.4053,629.2402 567.9988,628.9705 Q568.5923,628.7007 569.2231,628.1196 Z "/><text fill="#000000" font-family="sans-serif" font-size="12" lengthAdjust="spacingAndGlyphs" textLength="60" x="586.75" y="629.7344">Interaction</text><line style="stroke: #A80036; stroke-width: 1.5;" x1="436" x2="765" y1="641.1992" y2="641.1992"/><text fill="#000000" font-family="sans-serif" font-size="11" font-weight="bold" lengthAdjust="spacingAndGlyphs" textLength="79" x="441" y="655.834">key functions:</text><line style="stroke: #A80036; stroke-width: 1.0;" x1="436" x2="765" y1="662.1543" y2="662.1543"/><text fill="#000000" font-family="sans-serif" font-size="11" font-weight="bold" lengthAdjust="spacingAndGlyphs" textLength="98" x="441" y="676.7891">protected _render</text><text fill="#000000" font-family="sans-serif" font-size="11" font-weight="bold" lengthAdjust="spacingAndGlyphs" textLength="319" x="441" y="689.7441">({ feedbackMessage, value }: DropDown): TemplateResult</text><text fill="#000000" font-family="sans-serif" font-size="11" lengthAdjust="spacingAndGlyphs" textLength="169" x="441" y="702.6992">Renders using templated HTML.</text><text fill="#000000" font-family="sans-serif" font-size="11" lengthAdjust="spacingAndGlyphs" textLength="280" x="441" y="715.6543">Re-renders whenever any of the parameters change.</text><line style="stroke: #A80036; stroke-width: 1.0;" x1="436" x2="765" y1="721.9746" y2="721.9746"/><path d="M801.5,649.1992 L801.5,665.6992 L766.241,669.6992 L801.5,673.6992 L801.5,689.8203 A0,0 0 0 0 801.5,689.8203 L1233.5,689.8203 A0,0 0 0 0 1233.5,689.8203 L1233.5,659.1992 L1223.5,649.1992 L801.5,649.1992 A0,0 0 0 0 801.5,649.1992 " fill="#FBFB77" filter="url(#f1peexorvjz9zl)" style="stroke: #A80036; stroke-width: 1.0;"/><path d="M1223.5,649.1992 L1223.5,659.1992 L1233.5,659.1992 L1223.5,649.1992 " fill="#FBFB77" style="stroke: #A80036; stroke-width: 1.0;"/><text fill="#000000" font-family="sans-serif" font-size="13" lengthAdjust="spacingAndGlyphs" textLength="411" x="807.5" y="666.7676">an interaction of type MultipleChoice. E.g. drop-down, mcq, mrq.</text><text fill="#000000" font-family="sans-serif" font-size="13" lengthAdjust="spacingAndGlyphs" textLength="277" x="807.5" y="682.0781">Typically contains only the _render function</text><!--link LitElement to ComponentBase--><path d="M600.5,136.9452 C600.5,150.0072 600.5,163.8382 600.5,177.1262 " fill="none" id="LitElement-ComponentBase" style="stroke: #A80036; stroke-width: 1.0;"/><polygon fill="none" points="593.5,136.5872,600.5,116.5872,607.5,136.5872,593.5,136.5872" style="stroke: #A80036; stroke-width: 1.0;"/><!--link ComponentBase to MultipleChoice--><path d="M600.5,339.3132 C600.5,352.7802 600.5,366.6132 600.5,379.9302 " fill="none" id="ComponentBase-MultipleChoice" style="stroke: #A80036; stroke-width: 1.0;"/><polygon fill="none" points="593.5,339.2712,600.5,319.2712,607.5,339.2712,593.5,339.2712" style="stroke: #A80036; stroke-width: 1.0;"/><!--link Feedback to MultipleChoice--><path d="M385.41,464.1992 C392.197,464.1992 398.995,464.1992 405.774,464.1992 " fill="none" id="Feedback-MultipleChoice" style="stroke: #A80036; stroke-width: 1.0; stroke-dasharray: 7.0,7.0;"/><polygon fill="none" points="385.111,471.1992,365.111,464.1992,385.111,457.1992,385.111,471.1992" style="stroke: #A80036; stroke-width: 1.0;"/><text fill="#000000" font-family="sans-serif" font-size="13" lengthAdjust="spacingAndGlyphs" textLength="4" x="383.5" y="457.7676">.</text><!--link MultipleChoice to Interaction--><path d="M600.5,568.4912 C600.5,582.3602 600.5,596.1912 600.5,608.9522 " fill="none" id="MultipleChoice-Interaction" style="stroke: #A80036; stroke-width: 1.0;"/><polygon fill="none" points="593.5,568.2642,600.5,548.2642,607.5,568.2642,593.5,568.2642" style="stroke: #A80036; stroke-width: 1.0;"/><!--
@startuml multiple-choice-class-diagram

title
    Example of a typical multiple choice interaction.
end title

note right of LitElement: A simple base class for creating\ncustom elements rendered with lit-html.
class LitElement {
    <b>key functions:</b>
    - -
    <b>protected _render(_props: object): TemplateResult;</b>
    Render using an HTML template. Overridden by the interaction
}

LitElement <|- - ComponentBase

note right of ComponentBase: Super class for all \ninteractions
class ComponentBase<T> {
    <b>key functions:</b>
    - -
    <b>public showFeedback(): void</b>
    Sets the feedback state of the interaction
    - -
    <b>public getFeedback(): FeedbackMessage</b>
    - -
    <b>public getValue(): T</b>
    Returns the value of the interaction
}

ComponentBase <|- - MultipleChoice

note right of MultipleChoice: Super class for all \ninteractions of this type 
class MultipleChoice<string[]>  {
    <b>key functions:</b>
    - -
    <b>protected _onItemClicked\n<b>(event: Event, selected: string, multiple: boolean = false): void</b>\nClick handler for option items. Sets the value of the interaction
    - -
    <b>public match(el: ResponseValidation, response: string[]): boolean</b>
    Determine if the value of this interaction matches any of the responses
    - -
    <b>protected _onSlotChanged(event: Event): void</b>
    Place item elements into the interaction render template
}

MultipleChoice .left.|> Feedback:.

interface Feedback {
    <b>key functions:</b>
    - -
    <b>computeFeedback()</b>
    Determine feedback state (via componentBase)
    - -
    <b>_onFeedbackSlotChanged()</b>
    Place Feedback slot elements into the interaction render template
}

MultipleChoice <|- - Interaction

class Interaction {
    <b>key functions:</b>
    - -
    <b>protected _render\n<b>({ feedbackMessage, value }: DropDown): TemplateResult</b>
    Renders using templated HTML.
    Re-renders whenever any of the parameters change.
    - -
}

note right of Interaction
an interaction of type MultipleChoice. E.g. drop-down, mcq, mrq.
Typically contains only the _render function
end note

@enduml

PlantUML version 1.2018.03(Thu Apr 05 12:59:15 EDT 2018)
(GPL source distribution)
Java Runtime: Java(TM) SE Runtime Environment
JVM: Java HotSpot(TM) 64-Bit Server VM
Java Version: 1.8.0_40-b26
Operating System: Mac OS X
OS Version: 10.13.6
Default Encoding: UTF-8
Language: en
Country: CA
--></g></svg>